<svg xmlns="http://www.w3.org/2000/svg" version="1.1" xmlns:xlink="http://www.w3.org/1999/xlink" xmlns:svgjs="http://svgjs.dev/svgjs" width="2000" height="489" viewBox="0 0 2000 489"><g transform="matrix(1,0,0,1,-1.2121212121212466,-0.5539380250648662)"><svg viewBox="0 0 396 97" data-background-color="#000000" preserveAspectRatio="xMidYMid meet" height="489" width="2000" xmlns="http://www.w3.org/2000/svg" xmlns:xlink="http://www.w3.org/1999/xlink"><g id="tight-bounds" transform="matrix(1,0,0,1,0.2400000000000091,0.10988136693515571)"><svg viewBox="0 0 395.52 96.78023726612967" height="96.78023726612967" width="395.52"><g><svg viewBox="0 0 625.3503579266593 153.0176881437126" height="96.78023726612967" width="395.52"><g></g><g transform="matrix(1,0,0,1,0,21.147885988023965)"><svg viewBox="0 0 395.52 110.72191616766467" height="110.72191616766467" width="395.52"><g id="textblocktransform"><svg viewBox="0 0 395.52 110.72191616766467" height="110.72191616766467" width="395.52" id="textblock"><g><svg viewBox="0 0 395.52 110.72191616766467" height="110.72191616766467" width="395.52"><g transform="matrix(1,0,0,1,0,0)"><svg width="395.52" viewBox="1.23 -33.48 150.28 42.08" height="110.72191616766467" data-palette-color="url(#4720ebc8-274b-47db-8ae6-c7dd99ee3bd3)"><g class="wordmark-text-0" data-fill-palette-color="primary" id="text-0"></g></svg></g></svg></g></svg></g></svg></g><g transform="matrix(1,0,0,1,457.7825908274127,0)"><svg viewBox="0 0 167.5677670992466 153.0176881437126" height="153.0176881437126" width="167.5677670992466"><g><svg xmlns="http://www.w3.org/2000/svg" xmlns:xlink="http://www.w3.org/1999/xlink" version="1.1" x="0" y="0" viewBox="12.940000000000001 34.08999999999999 487.061 444.769" enable-background="new 0 0 512 512" xml:space="preserve" height="153.0176881437126" width="167.5677670992466" class="icon-icon-0" data-fill-palette-color="accent" id="icon-0"></svg></g></svg></g></svg></g><defs></defs><mask id="3e509800-f6ea-4e86-89e7-ba97d38ec51f"><g id="SvgjsG2003"><svg viewBox="0 0 395.52 96.78023726612967" height="96.78023726612967" width="395.52"><g><svg viewBox="0 0 625.3503579266593 153.0176881437126" height="96.78023726612967" width="395.52"><g><rect width="9.985016665017486" height="111.27552574850299" x="421.6587870811976" y="20.87108119760481" fill="white" opacity="1" stroke-width="0" stroke="transparent" fill-opacity="1" class="rect-qz-0" rx="1%" id="SvgjsRect2002" data-palette-color="url(#4720ebc8-274b-47db-8ae6-c7dd99ee3bd3)"></rect></g><g transform="matrix(1,0,0,1,0,21.147885988023965)"><svg viewBox="0 0 395.52 110.72191616766467" height="110.72191616766467" width="395.52"><g id="SvgjsG2001"><svg viewBox="0 0 395.52 110.72191616766467" height="110.72191616766467" width="395.52" id="SvgjsSvg2000"><g><svg viewBox="0 0 395.52 110.72191616766467" height="110.72191616766467" width="395.52"><g transform="matrix(1,0,0,1,0,0)"><svg width="395.52" viewBox="1.23 -33.48 150.28 42.08" height="110.72191616766467" data-palette-color="url(#4720ebc8-274b-47db-8ae6-c7dd99ee3bd3)"><g class="wordmark-text-0" data-fill-palette-color="primary" id="SvgjsG1999"><path d="M17.57 0L10.95 0 1.23-31.95 5.58-31.95 13.95-3.15 14.55-3.15 22.95-31.95 27.28-31.95 17.57 0ZM35.92 0L31.87 0 31.87-24.4 35.92-24.4 35.92 0ZM33.9-28.4L33.9-28.4Q32.65-28.4 32.03-29.06 31.42-29.73 31.42-30.88L31.42-30.88 31.42-31Q31.42-32.18 32.03-32.83 32.65-33.48 33.9-33.48L33.9-33.48Q35.15-33.48 35.77-32.83 36.4-32.18 36.4-31L36.4-31 36.4-30.88Q36.4-29.7 35.77-29.05 35.15-28.4 33.9-28.4ZM50.25 0.55L50.25 0.55Q47.3 0.55 45.09-0.09 42.9-0.73 41.45-1.48L41.45-1.48 41.07-5.23Q42.9-4.28 45.08-3.58 47.27-2.88 50.05-2.88L50.05-2.88Q52.87-2.88 54.3-3.78 55.72-4.67 55.72-6.45L55.72-6.45 55.72-6.73Q55.72-7.88 55.18-8.63 54.65-9.38 53.25-9.95 51.84-10.53 49.27-11.1L49.27-11.1Q46.2-11.78 44.42-12.69 42.65-13.6 41.88-14.95 41.12-16.3 41.12-18.25L41.12-18.25 41.12-18.48Q41.12-21.68 43.34-23.33 45.57-24.98 50.05-24.98L50.05-24.98Q52.92-24.98 55.03-24.33 57.14-23.68 58.5-22.88L58.5-22.88 58.87-19.45Q57.25-20.4 55.15-21.03 53.05-21.65 50.42-21.65L50.42-21.65Q48.52-21.65 47.34-21.26 46.17-20.88 45.65-20.16 45.12-19.45 45.12-18.45L45.12-18.45 45.12-18.25Q45.12-17.15 45.65-16.39 46.17-15.63 47.53-15.06 48.9-14.5 51.32-13.98L51.32-13.98Q54.45-13.35 56.28-12.48 58.12-11.6 58.92-10.26 59.72-8.93 59.72-6.83L59.72-6.83 59.72-6.4Q59.72-2.95 57.32-1.2 54.92 0.55 50.25 0.55ZM73.54 0.5L73.54 0.5Q70.72 0.5 68.99-0.35 67.27-1.2 66.49-2.93 65.72-4.65 65.72-7.23L65.72-7.23 65.72-22.63 69.72-22.63 69.72-7.7Q69.72-5.3 70.82-4.16 71.92-3.03 74.52-3.03L74.52-3.03Q75.99-3.03 77.36-3.35 78.72-3.68 79.92-4.28L79.92-4.28 79.54-0.8Q78.37-0.2 76.79 0.15 75.22 0.5 73.54 0.5ZM79.29-20.8L61.72-20.8 61.72-24.05 79.67-24.05 79.29-20.8ZM69.62-23.65L65.74-23.65 65.72-30.5 69.79-31.03 69.62-23.65ZM102.94 0L98.92 0 99.09-5.93 98.94-6.55 98.94-14.33 98.97-15.75Q98.97-18.73 97.45-20.15 95.94-21.58 92.67-21.58L92.67-21.58Q90.04-21.58 87.85-20.83 85.67-20.08 83.97-19.07L83.97-19.07 84.34-22.53Q85.29-23.1 86.6-23.66 87.92-24.23 89.6-24.6 91.29-24.98 93.32-24.98L93.32-24.98Q95.94-24.98 97.78-24.34 99.62-23.7 100.75-22.5 101.89-21.3 102.42-19.6 102.94-17.9 102.94-15.8L102.94-15.8 102.94 0ZM90.52 0.53L90.52 0.53Q86.89 0.53 84.95-1.24 83.02-3 83.02-6.28L83.02-6.28 83.02-7Q83.02-10.38 85.1-12.04 87.19-13.7 91.74-14.35L91.74-14.35 99.47-15.45 99.69-12.5 92.24-11.43Q89.44-11.03 88.24-10.06 87.04-9.1 87.04-7.23L87.04-7.23 87.04-6.83Q87.04-4.9 88.23-3.88 89.42-2.85 91.79-2.85L91.79-2.85Q93.89-2.85 95.39-3.58 96.89-4.3 97.82-5.53 98.74-6.75 99.07-8.25L99.07-8.25 99.69-5.5 98.92-5.5Q98.57-3.9 97.6-2.53 96.64-1.15 94.92-0.31 93.19 0.53 90.52 0.53ZM116.76 0.55L116.76 0.55Q113.81 0.55 111.61-0.09 109.41-0.73 107.96-1.48L107.96-1.48 107.59-5.23Q109.41-4.28 111.6-3.58 113.79-2.88 116.56-2.88L116.56-2.88Q119.39-2.88 120.81-3.78 122.24-4.67 122.24-6.45L122.24-6.45 122.24-6.73Q122.24-7.88 121.7-8.63 121.16-9.38 119.76-9.95 118.36-10.53 115.79-11.1L115.79-11.1Q112.71-11.78 110.94-12.69 109.16-13.6 108.4-14.95 107.64-16.3 107.64-18.25L107.64-18.25 107.64-18.48Q107.64-21.68 109.86-23.33 112.09-24.98 116.56-24.98L116.56-24.98Q119.44-24.98 121.55-24.33 123.66-23.68 125.01-22.88L125.01-22.88 125.39-19.45Q123.76-20.4 121.66-21.03 119.56-21.65 116.94-21.65L116.94-21.65Q115.04-21.65 113.86-21.26 112.69-20.88 112.16-20.16 111.64-19.45 111.64-18.45L111.64-18.45 111.64-18.25Q111.64-17.15 112.16-16.39 112.69-15.63 114.05-15.06 115.41-14.5 117.84-13.98L117.84-13.98Q120.96-13.35 122.8-12.48 124.64-11.6 125.44-10.26 126.24-8.93 126.24-6.83L126.24-6.83 126.24-6.4Q126.24-2.95 123.84-1.2 121.44 0.55 116.76 0.55ZM139.84-3.78L142.16-3.78 140.04-2.85 147.34-24.4 151.51-24.4 140.04 8.6 135.94 8.6 139.79-2.55 141.56-1 136.96-1 128.99-24.4 133.19-24.4 139.84-3.78Z" fill="white"></path></g></svg></g></svg></g></svg></g></svg></g><g transform="matrix(1,0,0,1,457.7825908274127,0)"><svg viewBox="0 0 167.5677670992466 153.0176881437126" height="153.0176881437126" width="167.5677670992466"><g><svg xmlns="http://www.w3.org/2000/svg" xmlns:xlink="http://www.w3.org/1999/xlink" version="1.1" x="0" y="0" viewBox="12.940000000000001 34.08999999999999 487.061 444.769" enable-background="new 0 0 512 512" xml:space="preserve" height="153.0176881437126" width="167.5677670992466" class="icon-icon-0" data-fill-palette-color="accent" id="SvgjsSvg1998"><g fill="black"><g fill="black"><g fill="black"><g fill="black"><g fill="black"><path d="M59.73 478.859c-1.05 0-2.08-0.42-2.82-1.17-0.75-0.739-1.18-1.771-1.18-2.819V363.55c0-1.05 0.43-2.079 1.17-2.819 0.75-0.75 1.78-1.181 2.83-1.181 27.69 0.011 51.06 6.28 67.57 18.14 7.55 5.41 13.43 11.842 17.48 19.11 3.96 7.101 5.96 14.62 5.95 22.341 0 0.479 0 0.959-0.02 1.489l0 0c-0.25 7.63-2.43 15.01-6.49 21.95-4.16 7.12-10.09 13.398-17.63 18.66C110.14 472.77 87.02 478.859 59.73 478.859zM63.73 367.6V470.82c23.87-0.55 44.02-6.13 58.27-16.13 12.91-9.08 20.27-21.271 20.71-34.319 0.02-0.41 0.02-0.83 0.02-1.23-0.01-13.199-7.15-25.619-20.1-34.949C108.33 373.891 87.96 368.16 63.73 367.6z" fill="black"></path></g><g fill="black"><path d="M414.069 194.12L414.069 194.12c-5.811-0.011-11.261-2.271-15.369-6.37-4.102-4.11-6.36-9.57-6.36-15.37 0.01-5.811 2.271-11.26 6.38-15.34 4.09-4.08 9.55-6.33 15.351-6.34 5.79 0.01 11.221 2.26 15.311 6.34 4.101 4.09 6.36 9.54 6.36 15.34C435.74 184.359 426.02 194.109 414.069 194.12zM414.069 158.7c-7.569 0-13.729 6.14-13.729 13.68 0.01 7.56 6.17 13.72 13.729 13.74 7.529-0.021 13.659-6.181 13.671-13.74C427.729 164.83 421.6 158.7 414.069 158.7L414.069 158.7z" fill="black"></path></g><g fill="black"><path d="M313.689 184.43L313.689 184.43c-11.979 0-21.721-9.729-21.729-21.67 0-5.81 2.261-11.27 6.36-15.38 4.108-4.1 9.56-6.37 15.369-6.37 1.761 0 3.311 0.18 4.75 0.54 4.739 1.07 9.039 3.74 12.119 7.53 3.131 3.85 4.86 8.71 4.86 13.68 0 2.1-0.32 4.24-0.94 6.36l-0.02 0.069c-1.391 4.391-4.08 8.17-7.78 10.931C322.899 182.939 318.41 184.43 313.689 184.43zM313.689 149.01c-7.561 0.021-13.721 6.18-13.729 13.75 0.01 7.521 6.17 13.66 13.729 13.67h0.021c5.99 0 11.26-3.86 13.1-9.6 0.4-1.34 0.61-2.78 0.61-4.07 0.021-6.4-4.53-12.04-10.8-13.42l-0.13-0.03C315.7 149.109 314.79 149.01 313.689 149.01L313.689 149.01z" fill="black"></path></g><g fill="black"><path d="M226.72 184.609L226.72 184.609c-7.23-0.01-14.02-2.819-19.11-7.909-5.09-5.08-7.9-11.851-7.92-19.061 0.02-7.21 2.83-13.979 7.92-19.06 5.09-5.09 11.88-7.891 19.11-7.91 14.82 0.01 26.89 12.1 26.9 26.97C253.61 172.51 241.54 184.609 226.72 184.609zM226.72 138.67c-10.49 0-19.03 8.51-19.03 18.97s8.54 18.97 19.03 18.97c10.4-0.02 18.88-8.529 18.9-18.97C245.6 147.2 237.12 138.689 226.72 138.67L226.72 138.67z" fill="black"></path></g><g fill="black"><path d="M346.75 247.939L346.75 247.939c-7.23-0.01-14.01-2.819-19.101-7.909-5.101-5.08-7.909-11.851-7.921-19.061 0.012-7.229 2.82-14.02 7.921-19.12 5.091-5.09 11.869-7.91 19.101-7.92l0 0 0 0c7.22 0 13.979 2.811 19.04 7.92 5.069 5.09 7.859 11.88 7.859 19.12-0.011 7.2-2.811 13.97-7.869 19.05C360.71 245.12 353.95 247.93 346.75 247.939zM346.75 201.93c-10.48 0.01-19.021 8.55-19.021 19.04 0 10.46 8.53 18.97 19.021 18.97 10.42 0 18.899-8.51 18.899-18.97C365.649 210.479 357.17 201.939 346.75 201.93L346.75 201.93z" fill="black"></path></g><g fill="black"><path d="M149.18 223.16c-7.21 0-13.98-2.801-19.07-7.9-5.09-5.09-7.9-11.86-7.9-19.07 0-7.199 2.81-13.979 7.9-19.069 5.09-5.101 11.86-7.9 19.07-7.91l0 0 0 0c7.2 0.01 13.97 2.81 19.06 7.91 5.09 5.09 7.9 11.87 7.9 19.069 0 7.21-2.81 13.98-7.9 19.07C163.15 220.359 156.38 223.16 149.18 223.16zM149.18 177.21c-10.44 0.02-18.95 8.54-18.97 18.979 0.02 10.44 8.53 18.96 18.97 18.971 10.43-0.011 18.94-8.53 18.96-18.971C168.12 185.75 159.61 177.229 149.18 177.21L149.18 177.21z" fill="black"></path></g><g fill="black"><path d="M352.58 172.89c-0.05 0-0.11 0-0.16-0.01l-21.939-0.9c-1.221-0.05-2.381-0.67-3.091-1.67-0.71-0.99-0.93-2.29-0.58-3.46 0.392-1.33 0.61-2.79 0.61-4.09 0.021-6.4-4.521-12.04-10.8-13.42-1.051-0.23-1.971-0.88-2.53-1.78-0.521-0.83-0.72-1.859-0.55-2.83 0.06-7.92 1.67-15.609 4.77-22.85 3.011-7 7.28-13.28 12.7-18.68 5.42-5.391 11.73-9.631 18.74-12.591 7.26-3.069 14.97-4.619 22.91-4.619h0.02c4.431 0 8.86 0.5 13.2 1.479 8.78 2.021 17.12 6.1 24.12 11.812 6.939 5.649 12.569 12.899 16.3 20.96 0.26 0.569 0.391 1.229 0.36 1.859l-0.062 1.38c-0.05 1.13-0.568 2.181-1.438 2.9-0.86 0.71-2 1.04-3.11 0.88-0.04 0-0.22-0.02-0.62-0.02h-0.08c-28.42 0-53.96 16.96-65.09 43.21C355.63 171.93 354.189 172.89 352.58 172.89zM335.37 164.18l14.66 0.601c5.93-12.74 15.188-23.69 26.778-31.681 11.83-8.17 25.67-12.91 40.021-13.729-7.09-12.181-19.021-20.96-32.74-24.101-3.8-0.859-7.54-1.279-11.43-1.279-13.642 0-26.471 5.329-36.142 15.01-8.97 9-14.26 20.899-14.909 33.53 4.011 1.569 7.439 4.279 9.909 7.829 2.551 3.65 3.9 7.931 3.9 12.4C335.42 163.22 335.41 163.7 335.37 164.18z" fill="black"></path></g><g fill="black"><path d="M421.56 295.99c-2.21 0-4-1.801-4-4 0-2.211 1.79-4 4-4h10.182c14.829 0 28.81-5.82 39.358-16.381 10.57-10.641 16.392-24.649 16.392-39.46 0-2.71-0.182-5.159-0.551-7.489-0.171-1.051 0.101-2.15 0.739-3.011 0.11-0.149 0.24-0.3 0.38-0.439 2.61-7.48 3.94-15.311 3.94-23.28 0.01-38.38-31.15-70.07-69.45-70.63l-0.49-0.04c-0.05-0.01-0.229-0.02-0.63-0.02h-0.08c-28.42 0-53.96 16.96-65.09 43.21-0.649 1.529-2.149 2.489-3.84 2.439l-19.12-0.79c-1.76 3.63-4.479 6.71-7.88 8.891-3.5 2.25-7.55 3.439-11.729 3.439-11.979 0-21.72-9.72-21.729-21.67 0-5.81 2.26-11.27 6.36-15.38 4.1-4.1 9.56-6.36 15.358-6.37 1-14.12 7.051-27.45 17.062-37.54 10.028-10.1 23.318-16.25 37.438-17.32 4.58-0.34 9.34-0.149 13.891 0.58 1.939 0.311 3.351 1.96 3.359 3.931 0.011 0.22-0.01 0.439-0.05 0.659-0.311 1.95-1.97 3.36-3.939 3.36-0.21 0-0.431-0.01-0.641-0.05-3.92-0.63-7.939-0.8-12.02-0.5-26.5 1.99-47.25 24.42-47.24 51.07 0 0.33-0.04 0.609-0.11 0.939l-0.06 0.24c-0.25 1.03-0.92 1.939-1.83 2.479-0.91 0.551-2.021 0.71-3.05 0.45-0.79-0.2-1.71-0.3-2.801-0.3-7.561 0.021-13.721 6.18-13.729 13.75 0.01 7.521 6.17 13.66 13.729 13.67h0.021c6.021 0 11.29-3.88 13.12-9.649 0.54-1.721 2.18-2.851 3.979-2.79l19.222 0.79c6.239-13.4 16.1-24.761 28.5-32.841 12.75-8.3 27.55-12.689 42.818-12.699h0.15c0.34 0 0.81 0 1.38 0.069 10.43 0.181 20.54 2.391 30.05 6.57 9.19 4.03 17.431 9.729 24.511 16.939 7.069 7.2 12.63 15.561 16.5 24.841 4.021 9.6 6.061 19.79 6.061 30.27 0 9.38-1.65 18.58-4.9 27.33 0.261 2.2 0.392 4.45 0.392 6.89 0 8.58-1.69 16.931-5.04 24.801-3.221 7.579-7.82 14.409-13.681 20.3-5.851 5.859-12.671 10.47-20.271 13.7-7.87 3.34-16.2 5.04-24.76 5.04H421.56V295.99zM351.56 295.99H102.65c-8.57-0.012-16.89-1.7-24.74-5.051-7.59-3.221-14.4-7.84-20.27-13.711-5.86-5.869-10.47-12.699-13.7-20.289-3.34-7.859-5.03-16.199-5.04-24.791 0-5.029 0.62-10.08 1.83-15.02 0.44-1.8 2.04-3.05 3.88-3.05 0.32 0 0.65 0.04 0.96 0.12 2.14 0.52 3.46 2.689 2.93 4.83-1.06 4.319-1.6 8.739-1.6 13.119 0.01 14.841 5.83 28.84 16.4 39.431 10.58 10.58 24.55 16.409 39.35 16.409h248.91c2.2 0 4 1.791 4 4C355.56 294.189 353.76 295.99 351.56 295.99zM346.75 247.939L346.75 247.939c-7.23-0.01-14.01-2.819-19.101-7.909-5.101-5.08-7.909-11.851-7.921-19.061 0.012-7.24 2.82-14.02 7.921-19.12 5.091-5.09 11.869-7.899 19.101-7.92 7.22 0 13.979 2.811 19.04 7.92 5.069 5.09 7.859 11.88 7.859 19.12-0.011 7.2-2.811 13.97-7.869 19.05C360.71 245.12 353.95 247.93 346.75 247.939zM346.75 201.93c-10.48 0.01-19.021 8.55-19.021 19.04 0 10.46 8.53 18.97 19.021 18.97 10.42 0 18.899-8.51 18.899-18.97C365.64 210.47 357.16 201.939 346.75 201.93zM149.18 223.16c-7.21 0-13.98-2.801-19.07-7.9-5.09-5.09-7.9-11.86-7.9-19.07 0.01-7.199 2.81-13.979 7.9-19.069 5.09-5.101 11.86-7.9 19.07-7.91 7.2 0.01 13.97 2.81 19.06 7.91 5.09 5.09 7.9 11.87 7.9 19.069 0 7.21-2.81 13.98-7.9 19.07C163.15 220.359 156.38 223.16 149.18 223.16zM149.18 177.21c-10.44 0.02-18.95 8.54-18.97 18.979 0.02 10.44 8.53 18.96 18.97 18.971 10.43-0.011 18.94-8.53 18.96-18.971C168.12 185.75 159.61 177.229 149.18 177.21L149.18 177.21zM414.069 194.109c-11.979 0-21.729-9.75-21.729-21.729 0.01-5.811 2.271-11.26 6.38-15.34 4.09-4.08 9.55-6.33 15.351-6.34l0 0 0 0c5.79 0.01 11.221 2.26 15.311 6.34 4.101 4.09 6.36 9.54 6.36 15.34C435.74 184.359 426.02 194.109 414.069 194.109zM414.069 158.689c-7.569 0.011-13.729 6.15-13.729 13.69 0.01 7.56 6.17 13.72 13.729 13.74 7.529-0.021 13.659-6.181 13.671-13.74C427.729 164.84 421.6 158.7 414.069 158.689L414.069 158.689zM226.71 184.609L226.71 184.609c-7.22-0.01-14.01-2.819-19.1-7.909-5.09-5.08-7.9-11.851-7.92-19.061 0.02-7.21 2.83-13.979 7.92-19.06 5.09-5.09 11.88-7.891 19.1-7.91 14.83 0.01 26.9 12.1 26.91 26.97C253.61 172.51 241.54 184.609 226.71 184.609zM226.71 138.67c-10.48 0-19.02 8.51-19.02 18.97 0.01 10.46 8.54 18.97 19.02 18.98 10.41-0.021 18.89-8.54 18.91-18.98C245.6 147.2 237.12 138.689 226.71 138.67L226.71 138.67zM46.3 155.67c-0.73 0-1.44-0.2-2.07-0.58-1.2-0.73-1.93-2-1.93-3.41 0-0.729 0.2-1.45 0.58-2.08 2.39-3.96 5.26-7.66 8.53-10.979 6.21-6.29 13.87-11.2 22.17-14.19 0.35-9.96 2.6-19.33 6.69-27.85 3.94-8.2 9.47-15.41 16.44-21.431 14.29-12.359 33.94-19.17 55.35-19.17 7.2 0 14.27 0.96 21.02 2.87l0.38-1.109c0.2-0.601 0.55-1.15 1-1.591 14.67-14.229 34.08-22.06 54.65-22.06h0.01c10.4 0 20.5 2.01 30.041 5.97 9.209 3.83 17.51 9.3 24.67 16.28 5.75-3.26 11.899-5.771 18.279-7.47 11.811-3.15 24.569-3.471 36.521-0.94 1.04 0.22 1.939 0.84 2.521 1.73 0.58 0.899 0.779 1.96 0.561 3.01-0.391 1.84-2.03 3.17-3.91 3.17-0.27 0-0.55-0.03-0.83-0.08-4.77-1.01-9.688-1.52-14.62-1.52-12.68 0-25.08 3.399-35.869 9.819l-0.311 0.3c-0.76 0.761-1.76 1.181-2.84 1.181h-0.051c-1.08-0.01-2.119-0.471-2.859-1.26-13.471-14.311-31.69-22.19-51.3-22.19-18.12 0-35.31 6.8-48.4 19.14l-1.31 3.88c-0.34 1.011-1.06 1.83-2.02 2.311-0.95 0.46-2.05 0.53-3.06 0.189-7.06-2.409-14.55-3.63-22.27-3.63-19.5 0-37.29 6.12-50.11 17.221-13.33 11.59-20.4 27.52-20.42 46.069v0.061c0 1.77-1.14 3.31-2.83 3.819-8.13 2.49-15.59 7.011-21.58 13.08 0 0 0 0.011-0.01 0.011-0.02 0.02-0.05 0.05-0.07 0.069-2.8 2.851-5.26 6.021-7.31 9.431-0.01 0-0.01 0-0.01 0.01C48.99 154.95 47.71 155.67 46.3 155.67z" fill="black"></path></g></g><g fill="black"><g fill="black"><path d="M102.65 295.99L102.65 295.99c-8.56-0.012-16.89-1.7-24.74-5.051-7.59-3.221-14.41-7.83-20.27-13.711-5.87-5.869-10.47-12.688-13.7-20.289-3.34-7.859-5.03-16.199-5.04-24.791 0.01-7.409 1.31-14.729 3.88-21.76-5.48-9.13-8.38-19.59-8.38-30.26 0-6.53 1.05-12.95 3.14-19.07 2.01-5.92 4.95-11.46 8.73-16.47 3.73-4.96 8.2-9.29 13.28-12.86 5.15-3.63 10.8-6.39 16.81-8.229l0.04-0.01c5.65-1.66 11.45-2.5 17.23-2.5 14.36 0 28.21 5.199 39 14.64 10.69 9.36 17.66 22.22 19.61 36.2 0.14 1.05-0.13 2.109-0.77 2.96-0.65 0.85-1.59 1.399-2.64 1.55-2.16 0.29-4.22-1.26-4.52-3.41-3.48-25.05-25.26-43.939-50.66-43.939h-0.02c-4.99 0-10.01 0.729-14.92 2.159-0.01 0-0.01 0-0.01 0.011-21.72 6.63-36.31 26.31-36.3 48.97 0 9.85 2.83 19.41 8.19 27.65 0.71 1.09 0.84 2.47 0.35 3.68-2.64 6.54-4.04 13.7-4.04 20.689 0 14.841 5.83 28.841 16.4 39.431 10.58 10.58 24.55 16.41 39.35 16.41 0.01 0 0.01 0 0.02 0 2.19 0.01 3.98 1.8 3.98 4C106.65 294.189 104.86 295.99 102.65 295.99z" fill="black"></path></g><g fill="black"><path d="M431.74 295.99c-2.2 0-4-1.801-4-4 0-2.211 1.8-4 4-4 14.829 0 28.81-5.82 39.358-16.381 10.57-10.641 16.392-24.649 16.392-39.46 0-2.71-0.182-5.159-0.551-7.489l-0.011-0.091c-3.739-27.47-27.45-48.189-55.16-48.189h-0.028c-2.2 0-4-1.8-4-4 0-2.21 1.8-4 4-4 15.47 0 30.39 5.65 42.028 15.91 11.53 10.16 19.021 24.08 21.08 39.2 0.432 2.729 0.642 5.56 0.642 8.659 0 8.58-1.69 16.931-5.04 24.801-3.222 7.579-7.82 14.409-13.682 20.3-5.85 5.859-12.67 10.47-20.27 13.7C448.63 294.29 440.3 295.99 431.74 295.99z" fill="black"></path></g><g fill="black"><path d="M226.71 138.67c-2.2 0-3.99-1.79-3.99-4 0-30.49-19.43-57.44-48.36-67.05l-0.03-0.011c-7.06-2.409-14.55-3.63-22.27-3.63-19.5 0-37.29 6.12-50.11 17.221-13.33 11.59-20.39 27.51-20.42 46.06v0.01c0 2.21-1.79 4-4 4-2.21 0-4-1.79-4-4-0.02-10.56 2.07-20.5 6.21-29.55 3.96-8.67 9.67-16.26 16.97-22.57 14.29-12.359 33.95-19.17 55.35-19.17 8.59 0 16.94 1.36 24.82 4.051l0 0c7.74 2.569 15.01 6.319 21.62 11.149 6.52 4.78 12.25 10.51 17.03 17.021 4.84 6.6 8.6 13.859 11.17 21.6 2.66 7.99 4.01 16.36 4.01 24.87C230.71 136.88 228.92 138.67 226.71 138.67z" fill="black"></path></g><g fill="black"><path d="M303.72 116.72c-2.21 0-4.01-1.8-4.01-4 0-18.07-6.851-35.28-19.29-48.438-13.471-14.311-31.69-22.19-51.3-22.19-18.43 0-35.83 7-49 19.72-0.42 0.44-0.84 0.87-1.24 1.29-0.46 0.47-0.88 0.91-1.28 1.34-0.01 0.011-0.01 0.011-0.01 0.011-0.75 0.81-1.82 1.279-2.93 1.279-1.01 0-1.98-0.38-2.72-1.08-0.79-0.72-1.24-1.71-1.28-2.779-0.03-1.07 0.34-2.09 1.07-2.87 0.49-0.521 0.98-1.021 1.45-1.51 0.4-0.421 0.79-0.82 1.15-1.21l0.13-0.131c14.67-14.229 34.08-22.06 54.65-22.06h0.02c10.99 0 21.63 2.24 31.63 6.65 9.66 4.27 18.23 10.34 25.48 18.05 13.85 14.64 21.479 33.79 21.47 53.93C307.71 114.92 305.92 116.72 303.72 116.72z" fill="black"></path></g><g fill="black"><path d="M388.78 94.89h-0.012c-1.5 0-2.858-0.82-3.55-2.149-0.739-1.421-1.5-2.881-2.31-4.181l-0.04-0.06c-12.931-21.45-35.562-34.26-60.521-34.26-12.84 0-25.39 3.479-36.279 10.06-0.631 0.38-1.34 0.58-2.069 0.58-1.41 0-2.7-0.72-3.431-1.93-1.141-1.891-0.529-4.351 1.359-5.49 12.131-7.34 26.11-11.22 40.41-11.22 13.811 0 27.391 3.64 39.28 10.52 11.52 6.66 21.239 16.22 28.108 27.62l0 0c0.961 1.53 1.73 3.03 2.49 4.47l0.101 0.19c1.011 1.96 0.25 4.38-1.71 5.399C390.05 94.729 389.41 94.89 388.78 94.89z" fill="black"></path></g><g fill="black"><path d="M491.31 227.979c-0.479 0-0.949-0.09-1.398-0.26-2.062-0.77-3.12-3.08-2.352-5.14 2.95-7.891 4.44-16.19 4.44-24.65 0.01-38.38-31.15-70.07-69.45-70.63l-0.49-0.04c-0.05 0-0.21-0.02-0.59-0.02h-0.14c-28.4 0-53.94 16.96-65.062 43.189-3.659 8.75-5.52 18-5.52 27.49v0.01c0 2.21-1.79 4-4 4s-4-1.79-4-4c0-10.56 2.069-20.86 6.149-30.6 5.96-14.08 15.811-26.061 28.5-34.641 13-8.79 28.199-13.439 43.949-13.449h0.11c0.35 0 0.82 0 1.39 0.06 10.44 0.19 20.551 2.39 30.062 6.57 9.188 4.04 17.438 9.729 24.52 16.939 7.08 7.2 12.63 15.561 16.511 24.84 4.021 9.61 6.061 19.801 6.061 30.28 0 9.42-1.66 18.65-4.94 27.44C494.479 226.93 492.97 227.979 491.31 227.979z" fill="black"></path></g><g fill="black"><path d="M317.54 149.2c-2.21 0-4-1.801-4-4.011 0-7.97 1.56-15.72 4.649-23.02 2.979-7.04 7.239-13.38 12.67-18.82 5.431-5.439 11.75-9.71 18.79-12.7 7.29-3.09 15.029-4.659 23.011-4.659 4.43 0 8.88 0.5 13.21 1.479 8.779 2.021 17.13 6.1 24.13 11.811 6.939 5.649 12.569 12.899 16.3 20.96 0.931 2 0.05 4.39-1.95 5.31-0.529 0.25-1.1 0.37-1.68 0.37-1.55 0-2.979-0.91-3.63-2.32-6.58-14.229-19.641-24.819-34.95-28.33-3.79-0.859-7.53-1.279-11.43-1.29-13.641 0.01-26.471 5.339-36.141 15.02-9.659 9.689-14.979 22.55-14.979 36.189C321.54 147.399 319.74 149.2 317.54 149.2z" fill="black"></path></g><g fill="black"><path d="M103.98 295.99c-2.21 0-4-1.801-4-4 0-2.211 1.79-4 4-4h332.93c2.21 0 4 1.789 4 4 0 2.199-1.79 4-4 4H103.99C103.98 295.99 103.98 295.99 103.98 295.99z" fill="black"></path></g><g fill="black"><path d="M149.18 223.16c-7.21 0-13.98-2.801-19.07-7.9-5.09-5.09-7.9-11.86-7.9-19.07 0-7.199 2.81-13.979 7.9-19.069 5.09-5.101 11.86-7.9 19.07-7.91l0 0 0 0c7.2 0.01 13.97 2.81 19.06 7.91 5.09 5.09 7.9 11.87 7.9 19.069 0 7.21-2.81 13.98-7.9 19.07C163.15 220.359 156.38 223.16 149.18 223.16zM149.18 177.21c-10.44 0.02-18.95 8.54-18.97 18.979 0.02 10.44 8.53 18.96 18.97 18.971 10.43-0.011 18.94-8.53 18.96-18.971C168.12 185.75 159.61 177.229 149.18 177.21L149.18 177.21z" fill="black"></path></g><g fill="black"><path d="M226.72 184.609L226.72 184.609c-7.23-0.01-14.02-2.819-19.11-7.909-5.09-5.08-7.9-11.851-7.92-19.061 0.02-7.21 2.83-13.979 7.92-19.06 5.09-5.09 11.88-7.891 19.11-7.91l0 0 0 0 0 0c14.82 0.01 26.89 12.1 26.9 26.97C253.61 172.51 241.54 184.609 226.72 184.609zM226.72 138.67c-10.49 0-19.03 8.51-19.03 18.97s8.54 18.97 19.03 18.97c10.4-0.02 18.88-8.529 18.9-18.97C245.6 147.2 237.12 138.689 226.72 138.67L226.72 138.67z" fill="black"></path></g><g fill="black"><path d="M346.75 247.939L346.75 247.939c-7.23-0.01-14.01-2.819-19.101-7.909-5.101-5.08-7.909-11.851-7.921-19.061 0.012-7.229 2.82-14.02 7.921-19.12 5.091-5.09 11.869-7.91 19.101-7.92l0 0 0 0c7.22 0 13.979 2.811 19.04 7.92 5.069 5.09 7.859 11.88 7.859 19.12-0.011 7.2-2.811 13.97-7.869 19.05C360.71 245.12 353.95 247.93 346.75 247.939zM346.75 201.93c-10.48 0.01-19.021 8.55-19.021 19.04 0 10.46 8.53 18.97 19.021 18.97 10.42 0 18.899-8.51 18.899-18.97C365.649 210.479 357.17 201.939 346.75 201.93L346.75 201.93z" fill="black"></path></g><g fill="black"><path d="M313.689 184.43L313.689 184.43c-11.979 0-21.721-9.729-21.729-21.67 0-5.81 2.261-11.27 6.36-15.38 4.108-4.1 9.56-6.37 15.369-6.37 1.761 0 3.311 0.18 4.75 0.54 4.739 1.07 9.039 3.74 12.119 7.53 3.131 3.85 4.86 8.71 4.86 13.68 0 2.1-0.32 4.24-0.94 6.36l-0.02 0.069c-1.391 4.391-4.08 8.17-7.78 10.931C322.899 182.939 318.41 184.43 313.689 184.43zM313.689 149.01c-7.561 0.021-13.721 6.18-13.729 13.75 0.01 7.521 6.17 13.66 13.729 13.67h0.021c5.99 0 11.26-3.86 13.1-9.6 0.4-1.34 0.61-2.78 0.61-4.07 0.021-6.4-4.53-12.04-10.8-13.42l-0.13-0.03C315.7 149.109 314.79 149.01 313.689 149.01L313.689 149.01z" fill="black"></path></g><g fill="black"><path d="M414.069 194.12L414.069 194.12c-5.811-0.011-11.261-2.271-15.369-6.37-4.102-4.11-6.36-9.57-6.36-15.37 0.01-5.811 2.271-11.26 6.38-15.34 4.09-4.08 9.55-6.33 15.351-6.34l0 0 0 0 0 0 0 0c5.79 0.01 11.221 2.26 15.311 6.34 4.101 4.09 6.36 9.54 6.36 15.34C435.74 184.359 426.02 194.109 414.069 194.12zM414.069 158.7c-7.569 0-13.729 6.14-13.729 13.68 0.01 7.56 6.17 13.72 13.729 13.74 7.529-0.021 13.659-6.181 13.671-13.74C427.729 164.83 421.6 158.7 414.069 158.7L414.069 158.7z" fill="black"></path></g><g fill="black"><path d="M286.24 424.5c-2.2 0-4-1.79-4-4 0-2.2 1.8-4 4-4h106.55c8.68 0 16.859-3.4 23.06-9.59 6.2-6.2 9.61-14.4 9.61-23.092 0-8.688-3.41-16.889-9.61-23.09-6.188-6.188-14.38-9.59-23.06-9.59H270.529c-2.199 0-4-1.8-4-4 0-2.209 1.801-4 4-4H392.79c22.41 0.01 40.649 18.26 40.67 40.68-0.021 22.422-18.26 40.672-40.67 40.682H286.24zM216.24 424.5h-69.53c-2.21 0-4-1.79-4-4 0-2.2 1.79-4 4-4h69.53c2.21 0 4 1.8 4 4C220.24 422.71 218.45 424.5 216.24 424.5z" fill="black"></path></g><g fill="black"><path d="M270.54 351.141c-2.21 0-4-1.801-4-4v-55.15c0-2.211 1.79-4 4-4 2.2 0 4 1.789 4 4v55.148C274.54 349.34 272.74 351.141 270.54 351.141z" fill="black"></path></g><g fill="black"><path d="M59.73 478.859c-1.05 0-2.08-0.42-2.82-1.17-0.75-0.739-1.18-1.771-1.18-2.819V363.55c0-1.05 0.43-2.079 1.17-2.819 0.75-0.75 1.78-1.181 2.83-1.181 27.69 0.011 51.06 6.28 67.57 18.14 7.55 5.41 13.43 11.842 17.48 19.11 3.96 7.101 5.96 14.62 5.95 22.341 0 0.479 0 0.959-0.02 1.489l0 0c-0.25 7.63-2.43 15.01-6.49 21.95-4.16 7.12-10.09 13.398-17.63 18.66C110.14 472.77 87.02 478.859 59.73 478.859zM63.73 367.6V470.82c23.87-0.55 44.02-6.13 58.27-16.13 12.91-9.08 20.27-21.271 20.71-34.319 0.02-0.41 0.02-0.83 0.02-1.23-0.01-13.199-7.15-25.619-20.1-34.949C108.33 373.891 87.96 368.16 63.73 367.6z" fill="black"></path></g><g fill="black"><path d="M59.73 397.859H16.94c-2.21 0-4-1.791-4-4 0-2.199 1.79-4 4-4h42.79c2.21 0 4 1.801 4 4C63.73 396.068 61.94 397.859 59.73 397.859z" fill="black"></path></g><g fill="black"><path d="M59.73 448.55H16.94c-2.21 0-4-1.79-4-3.99 0-2.21 1.79-4 4-4h42.79c2.21 0 4 1.79 4 4C63.73 446.76 61.94 448.55 59.73 448.55z" fill="black"></path></g><g fill="black"><path d="M87.56 437.13c-2.2 0-3.99-1.79-3.99-3.99V400.9c0-2.211 1.79-4 3.99-4 2.21 0 4 1.789 4 4v32.239C91.56 435.34 89.77 437.13 87.56 437.13z" fill="black"></path></g><g fill="black"><path d="M110.59 430.52c-2.21 0-4-1.8-4-4v-19c0-2.209 1.79-4 4-4 2.2 0 4 1.791 4 4v19C114.59 428.72 112.79 430.52 110.59 430.52z" fill="black"></path></g></g></g></g></g></svg></g></svg></g></svg></g><defs><mask></mask></defs></svg><rect width="395.52" height="96.78023726612967" fill="black" stroke="none" visibility="hidden"></rect></g></mask><linearGradient x1="0" x2="1" y1="0.578" y2="0.595" id="4720ebc8-274b-47db-8ae6-c7dd99ee3bd3"><stop stop-color="#6ee2f5" offset="0"></stop><stop stop-color="#6454f0" offset="1"></stop></linearGradient><rect width="395.52" height="96.78023726612967" fill="url(#4720ebc8-274b-47db-8ae6-c7dd99ee3bd3)" mask="url(#3e509800-f6ea-4e86-89e7-ba97d38ec51f)" data-fill-palette-color="primary"></rect><mask id="312d539f-c764-414a-bdda-c12d14a864df"><g id="SvgjsG2026"><svg viewBox="0 0 395.52 96.78023726612967" height="96.78023726612967" width="395.52"><g><svg viewBox="0 0 625.3503579266593 153.0176881437126" height="96.78023726612967" width="395.52"><g></g><g transform="matrix(1,0,0,1,0,21.147885988023965)"><svg viewBox="0 0 395.52 110.72191616766467" height="110.72191616766467" width="395.52"><g id="SvgjsG2025"><svg viewBox="0 0 395.52 110.72191616766467" height="110.72191616766467" width="395.52" id="SvgjsSvg2024"><g><svg viewBox="0 0 395.52 110.72191616766467" height="110.72191616766467" width="395.52"><g transform="matrix(1,0,0,1,0,0)"><svg width="395.52" viewBox="1.23 -33.48 150.28 42.08" height="110.72191616766467" data-palette-color="url(#4720ebc8-274b-47db-8ae6-c7dd99ee3bd3)"><g class="wordmark-text-0" data-fill-palette-color="primary" id="SvgjsG2023"></g></svg></g></svg></g></svg></g></svg></g><g transform="matrix(1,0,0,1,457.7825908274127,0)"><svg viewBox="0 0 167.5677670992466 153.0176881437126" height="153.0176881437126" width="167.5677670992466"><g><svg xmlns="http://www.w3.org/2000/svg" xmlns:xlink="http://www.w3.org/1999/xlink" version="1.1" x="0" y="0" viewBox="12.940000000000001 34.08999999999999 487.061 444.769" enable-background="new 0 0 512 512" xml:space="preserve" height="153.0176881437126" width="167.5677670992466" class="icon-icon-0" data-fill-palette-color="accent" id="SvgjsSvg2022"><g fill="white"><g fill="white"><g fill="white"><g fill="white"><g fill="white"><path d="M59.73 478.859c-1.05 0-2.08-0.42-2.82-1.17-0.75-0.739-1.18-1.771-1.18-2.819V363.55c0-1.05 0.43-2.079 1.17-2.819 0.75-0.75 1.78-1.181 2.83-1.181 27.69 0.011 51.06 6.28 67.57 18.14 7.55 5.41 13.43 11.842 17.48 19.11 3.96 7.101 5.96 14.62 5.95 22.341 0 0.479 0 0.959-0.02 1.489l0 0c-0.25 7.63-2.43 15.01-6.49 21.95-4.16 7.12-10.09 13.398-17.63 18.66C110.14 472.77 87.02 478.859 59.73 478.859zM63.73 367.6V470.82c23.87-0.55 44.02-6.13 58.27-16.13 12.91-9.08 20.27-21.271 20.71-34.319 0.02-0.41 0.02-0.83 0.02-1.23-0.01-13.199-7.15-25.619-20.1-34.949C108.33 373.891 87.96 368.16 63.73 367.6z" fill="white"></path></g><g fill="white"><path d="M414.069 194.12L414.069 194.12c-5.811-0.011-11.261-2.271-15.369-6.37-4.102-4.11-6.36-9.57-6.36-15.37 0.01-5.811 2.271-11.26 6.38-15.34 4.09-4.08 9.55-6.33 15.351-6.34 5.79 0.01 11.221 2.26 15.311 6.34 4.101 4.09 6.36 9.54 6.36 15.34C435.74 184.359 426.02 194.109 414.069 194.12zM414.069 158.7c-7.569 0-13.729 6.14-13.729 13.68 0.01 7.56 6.17 13.72 13.729 13.74 7.529-0.021 13.659-6.181 13.671-13.74C427.729 164.83 421.6 158.7 414.069 158.7L414.069 158.7z" fill="white"></path></g><g fill="white"><path d="M313.689 184.43L313.689 184.43c-11.979 0-21.721-9.729-21.729-21.67 0-5.81 2.261-11.27 6.36-15.38 4.108-4.1 9.56-6.37 15.369-6.37 1.761 0 3.311 0.18 4.75 0.54 4.739 1.07 9.039 3.74 12.119 7.53 3.131 3.85 4.86 8.71 4.86 13.68 0 2.1-0.32 4.24-0.94 6.36l-0.02 0.069c-1.391 4.391-4.08 8.17-7.78 10.931C322.899 182.939 318.41 184.43 313.689 184.43zM313.689 149.01c-7.561 0.021-13.721 6.18-13.729 13.75 0.01 7.521 6.17 13.66 13.729 13.67h0.021c5.99 0 11.26-3.86 13.1-9.6 0.4-1.34 0.61-2.78 0.61-4.07 0.021-6.4-4.53-12.04-10.8-13.42l-0.13-0.03C315.7 149.109 314.79 149.01 313.689 149.01L313.689 149.01z" fill="white"></path></g><g fill="white"><path d="M226.72 184.609L226.72 184.609c-7.23-0.01-14.02-2.819-19.11-7.909-5.09-5.08-7.9-11.851-7.92-19.061 0.02-7.21 2.83-13.979 7.92-19.06 5.09-5.09 11.88-7.891 19.11-7.91 14.82 0.01 26.89 12.1 26.9 26.97C253.61 172.51 241.54 184.609 226.72 184.609zM226.72 138.67c-10.49 0-19.03 8.51-19.03 18.97s8.54 18.97 19.03 18.97c10.4-0.02 18.88-8.529 18.9-18.97C245.6 147.2 237.12 138.689 226.72 138.67L226.72 138.67z" fill="white"></path></g><g fill="white"><path d="M346.75 247.939L346.75 247.939c-7.23-0.01-14.01-2.819-19.101-7.909-5.101-5.08-7.909-11.851-7.921-19.061 0.012-7.229 2.82-14.02 7.921-19.12 5.091-5.09 11.869-7.91 19.101-7.92l0 0 0 0c7.22 0 13.979 2.811 19.04 7.92 5.069 5.09 7.859 11.88 7.859 19.12-0.011 7.2-2.811 13.97-7.869 19.05C360.71 245.12 353.95 247.93 346.75 247.939zM346.75 201.93c-10.48 0.01-19.021 8.55-19.021 19.04 0 10.46 8.53 18.97 19.021 18.97 10.42 0 18.899-8.51 18.899-18.97C365.649 210.479 357.17 201.939 346.75 201.93L346.75 201.93z" fill="white"></path></g><g fill="white"><path d="M149.18 223.16c-7.21 0-13.98-2.801-19.07-7.9-5.09-5.09-7.9-11.86-7.9-19.07 0-7.199 2.81-13.979 7.9-19.069 5.09-5.101 11.86-7.9 19.07-7.91l0 0 0 0c7.2 0.01 13.97 2.81 19.06 7.91 5.09 5.09 7.9 11.87 7.9 19.069 0 7.21-2.81 13.98-7.9 19.07C163.15 220.359 156.38 223.16 149.18 223.16zM149.18 177.21c-10.44 0.02-18.95 8.54-18.97 18.979 0.02 10.44 8.53 18.96 18.97 18.971 10.43-0.011 18.94-8.53 18.96-18.971C168.12 185.75 159.61 177.229 149.18 177.21L149.18 177.21z" fill="white"></path></g><g fill="white"><path d="M352.58 172.89c-0.05 0-0.11 0-0.16-0.01l-21.939-0.9c-1.221-0.05-2.381-0.67-3.091-1.67-0.71-0.99-0.93-2.29-0.58-3.46 0.392-1.33 0.61-2.79 0.61-4.09 0.021-6.4-4.521-12.04-10.8-13.42-1.051-0.23-1.971-0.88-2.53-1.78-0.521-0.83-0.72-1.859-0.55-2.83 0.06-7.92 1.67-15.609 4.77-22.85 3.011-7 7.28-13.28 12.7-18.68 5.42-5.391 11.73-9.631 18.74-12.591 7.26-3.069 14.97-4.619 22.91-4.619h0.02c4.431 0 8.86 0.5 13.2 1.479 8.78 2.021 17.12 6.1 24.12 11.812 6.939 5.649 12.569 12.899 16.3 20.96 0.26 0.569 0.391 1.229 0.36 1.859l-0.062 1.38c-0.05 1.13-0.568 2.181-1.438 2.9-0.86 0.71-2 1.04-3.11 0.88-0.04 0-0.22-0.02-0.62-0.02h-0.08c-28.42 0-53.96 16.96-65.09 43.21C355.63 171.93 354.189 172.89 352.58 172.89zM335.37 164.18l14.66 0.601c5.93-12.74 15.188-23.69 26.778-31.681 11.83-8.17 25.67-12.91 40.021-13.729-7.09-12.181-19.021-20.96-32.74-24.101-3.8-0.859-7.54-1.279-11.43-1.279-13.642 0-26.471 5.329-36.142 15.01-8.97 9-14.26 20.899-14.909 33.53 4.011 1.569 7.439 4.279 9.909 7.829 2.551 3.65 3.9 7.931 3.9 12.4C335.42 163.22 335.41 163.7 335.37 164.18z" fill="white"></path></g><g fill="white"><path d="M421.56 295.99c-2.21 0-4-1.801-4-4 0-2.211 1.79-4 4-4h10.182c14.829 0 28.81-5.82 39.358-16.381 10.57-10.641 16.392-24.649 16.392-39.46 0-2.71-0.182-5.159-0.551-7.489-0.171-1.051 0.101-2.15 0.739-3.011 0.11-0.149 0.24-0.3 0.38-0.439 2.61-7.48 3.94-15.311 3.94-23.28 0.01-38.38-31.15-70.07-69.45-70.63l-0.49-0.04c-0.05-0.01-0.229-0.02-0.63-0.02h-0.08c-28.42 0-53.96 16.96-65.09 43.21-0.649 1.529-2.149 2.489-3.84 2.439l-19.12-0.79c-1.76 3.63-4.479 6.71-7.88 8.891-3.5 2.25-7.55 3.439-11.729 3.439-11.979 0-21.72-9.72-21.729-21.67 0-5.81 2.26-11.27 6.36-15.38 4.1-4.1 9.56-6.36 15.358-6.37 1-14.12 7.051-27.45 17.062-37.54 10.028-10.1 23.318-16.25 37.438-17.32 4.58-0.34 9.34-0.149 13.891 0.58 1.939 0.311 3.351 1.96 3.359 3.931 0.011 0.22-0.01 0.439-0.05 0.659-0.311 1.95-1.97 3.36-3.939 3.36-0.21 0-0.431-0.01-0.641-0.05-3.92-0.63-7.939-0.8-12.02-0.5-26.5 1.99-47.25 24.42-47.24 51.07 0 0.33-0.04 0.609-0.11 0.939l-0.06 0.24c-0.25 1.03-0.92 1.939-1.83 2.479-0.91 0.551-2.021 0.71-3.05 0.45-0.79-0.2-1.71-0.3-2.801-0.3-7.561 0.021-13.721 6.18-13.729 13.75 0.01 7.521 6.17 13.66 13.729 13.67h0.021c6.021 0 11.29-3.88 13.12-9.649 0.54-1.721 2.18-2.851 3.979-2.79l19.222 0.79c6.239-13.4 16.1-24.761 28.5-32.841 12.75-8.3 27.55-12.689 42.818-12.699h0.15c0.34 0 0.81 0 1.38 0.069 10.43 0.181 20.54 2.391 30.05 6.57 9.19 4.03 17.431 9.729 24.511 16.939 7.069 7.2 12.63 15.561 16.5 24.841 4.021 9.6 6.061 19.79 6.061 30.27 0 9.38-1.65 18.58-4.9 27.33 0.261 2.2 0.392 4.45 0.392 6.89 0 8.58-1.69 16.931-5.04 24.801-3.221 7.579-7.82 14.409-13.681 20.3-5.851 5.859-12.671 10.47-20.271 13.7-7.87 3.34-16.2 5.04-24.76 5.04H421.56V295.99zM351.56 295.99H102.65c-8.57-0.012-16.89-1.7-24.74-5.051-7.59-3.221-14.4-7.84-20.27-13.711-5.86-5.869-10.47-12.699-13.7-20.289-3.34-7.859-5.03-16.199-5.04-24.791 0-5.029 0.62-10.08 1.83-15.02 0.44-1.8 2.04-3.05 3.88-3.05 0.32 0 0.65 0.04 0.96 0.12 2.14 0.52 3.46 2.689 2.93 4.83-1.06 4.319-1.6 8.739-1.6 13.119 0.01 14.841 5.83 28.84 16.4 39.431 10.58 10.58 24.55 16.409 39.35 16.409h248.91c2.2 0 4 1.791 4 4C355.56 294.189 353.76 295.99 351.56 295.99zM346.75 247.939L346.75 247.939c-7.23-0.01-14.01-2.819-19.101-7.909-5.101-5.08-7.909-11.851-7.921-19.061 0.012-7.24 2.82-14.02 7.921-19.12 5.091-5.09 11.869-7.899 19.101-7.92 7.22 0 13.979 2.811 19.04 7.92 5.069 5.09 7.859 11.88 7.859 19.12-0.011 7.2-2.811 13.97-7.869 19.05C360.71 245.12 353.95 247.93 346.75 247.939zM346.75 201.93c-10.48 0.01-19.021 8.55-19.021 19.04 0 10.46 8.53 18.97 19.021 18.97 10.42 0 18.899-8.51 18.899-18.97C365.64 210.47 357.16 201.939 346.75 201.93zM149.18 223.16c-7.21 0-13.98-2.801-19.07-7.9-5.09-5.09-7.9-11.86-7.9-19.07 0.01-7.199 2.81-13.979 7.9-19.069 5.09-5.101 11.86-7.9 19.07-7.91 7.2 0.01 13.97 2.81 19.06 7.91 5.09 5.09 7.9 11.87 7.9 19.069 0 7.21-2.81 13.98-7.9 19.07C163.15 220.359 156.38 223.16 149.18 223.16zM149.18 177.21c-10.44 0.02-18.95 8.54-18.97 18.979 0.02 10.44 8.53 18.96 18.97 18.971 10.43-0.011 18.94-8.53 18.96-18.971C168.12 185.75 159.61 177.229 149.18 177.21L149.18 177.21zM414.069 194.109c-11.979 0-21.729-9.75-21.729-21.729 0.01-5.811 2.271-11.26 6.38-15.34 4.09-4.08 9.55-6.33 15.351-6.34l0 0 0 0c5.79 0.01 11.221 2.26 15.311 6.34 4.101 4.09 6.36 9.54 6.36 15.34C435.74 184.359 426.02 194.109 414.069 194.109zM414.069 158.689c-7.569 0.011-13.729 6.15-13.729 13.69 0.01 7.56 6.17 13.72 13.729 13.74 7.529-0.021 13.659-6.181 13.671-13.74C427.729 164.84 421.6 158.7 414.069 158.689L414.069 158.689zM226.71 184.609L226.71 184.609c-7.22-0.01-14.01-2.819-19.1-7.909-5.09-5.08-7.9-11.851-7.92-19.061 0.02-7.21 2.83-13.979 7.92-19.06 5.09-5.09 11.88-7.891 19.1-7.91 14.83 0.01 26.9 12.1 26.91 26.97C253.61 172.51 241.54 184.609 226.71 184.609zM226.71 138.67c-10.48 0-19.02 8.51-19.02 18.97 0.01 10.46 8.54 18.97 19.02 18.98 10.41-0.021 18.89-8.54 18.91-18.98C245.6 147.2 237.12 138.689 226.71 138.67L226.71 138.67zM46.3 155.67c-0.73 0-1.44-0.2-2.07-0.58-1.2-0.73-1.93-2-1.93-3.41 0-0.729 0.2-1.45 0.58-2.08 2.39-3.96 5.26-7.66 8.53-10.979 6.21-6.29 13.87-11.2 22.17-14.19 0.35-9.96 2.6-19.33 6.69-27.85 3.94-8.2 9.47-15.41 16.44-21.431 14.29-12.359 33.94-19.17 55.35-19.17 7.2 0 14.27 0.96 21.02 2.87l0.38-1.109c0.2-0.601 0.55-1.15 1-1.591 14.67-14.229 34.08-22.06 54.65-22.06h0.01c10.4 0 20.5 2.01 30.041 5.97 9.209 3.83 17.51 9.3 24.67 16.28 5.75-3.26 11.899-5.771 18.279-7.47 11.811-3.15 24.569-3.471 36.521-0.94 1.04 0.22 1.939 0.84 2.521 1.73 0.58 0.899 0.779 1.96 0.561 3.01-0.391 1.84-2.03 3.17-3.91 3.17-0.27 0-0.55-0.03-0.83-0.08-4.77-1.01-9.688-1.52-14.62-1.52-12.68 0-25.08 3.399-35.869 9.819l-0.311 0.3c-0.76 0.761-1.76 1.181-2.84 1.181h-0.051c-1.08-0.01-2.119-0.471-2.859-1.26-13.471-14.311-31.69-22.19-51.3-22.19-18.12 0-35.31 6.8-48.4 19.14l-1.31 3.88c-0.34 1.011-1.06 1.83-2.02 2.311-0.95 0.46-2.05 0.53-3.06 0.189-7.06-2.409-14.55-3.63-22.27-3.63-19.5 0-37.29 6.12-50.11 17.221-13.33 11.59-20.4 27.52-20.42 46.069v0.061c0 1.77-1.14 3.31-2.83 3.819-8.13 2.49-15.59 7.011-21.58 13.08 0 0 0 0.011-0.01 0.011-0.02 0.02-0.05 0.05-0.07 0.069-2.8 2.851-5.26 6.021-7.31 9.431-0.01 0-0.01 0-0.01 0.01C48.99 154.95 47.71 155.67 46.3 155.67z" fill="white"></path></g></g><g fill="white"><g fill="white"><path d="M102.65 295.99L102.65 295.99c-8.56-0.012-16.89-1.7-24.74-5.051-7.59-3.221-14.41-7.83-20.27-13.711-5.87-5.869-10.47-12.688-13.7-20.289-3.34-7.859-5.03-16.199-5.04-24.791 0.01-7.409 1.31-14.729 3.88-21.76-5.48-9.13-8.38-19.59-8.38-30.26 0-6.53 1.05-12.95 3.14-19.07 2.01-5.92 4.95-11.46 8.73-16.47 3.73-4.96 8.2-9.29 13.28-12.86 5.15-3.63 10.8-6.39 16.81-8.229l0.04-0.01c5.65-1.66 11.45-2.5 17.23-2.5 14.36 0 28.21 5.199 39 14.64 10.69 9.36 17.66 22.22 19.61 36.2 0.14 1.05-0.13 2.109-0.77 2.96-0.65 0.85-1.59 1.399-2.64 1.55-2.16 0.29-4.22-1.26-4.52-3.41-3.48-25.05-25.26-43.939-50.66-43.939h-0.02c-4.99 0-10.01 0.729-14.92 2.159-0.01 0-0.01 0-0.01 0.011-21.72 6.63-36.31 26.31-36.3 48.97 0 9.85 2.83 19.41 8.19 27.65 0.71 1.09 0.84 2.47 0.35 3.68-2.64 6.54-4.04 13.7-4.04 20.689 0 14.841 5.83 28.841 16.4 39.431 10.58 10.58 24.55 16.41 39.35 16.41 0.01 0 0.01 0 0.02 0 2.19 0.01 3.98 1.8 3.98 4C106.65 294.189 104.86 295.99 102.65 295.99z" fill="white"></path></g><g fill="white"><path d="M431.74 295.99c-2.2 0-4-1.801-4-4 0-2.211 1.8-4 4-4 14.829 0 28.81-5.82 39.358-16.381 10.57-10.641 16.392-24.649 16.392-39.46 0-2.71-0.182-5.159-0.551-7.489l-0.011-0.091c-3.739-27.47-27.45-48.189-55.16-48.189h-0.028c-2.2 0-4-1.8-4-4 0-2.21 1.8-4 4-4 15.47 0 30.39 5.65 42.028 15.91 11.53 10.16 19.021 24.08 21.08 39.2 0.432 2.729 0.642 5.56 0.642 8.659 0 8.58-1.69 16.931-5.04 24.801-3.222 7.579-7.82 14.409-13.682 20.3-5.85 5.859-12.67 10.47-20.27 13.7C448.63 294.29 440.3 295.99 431.74 295.99z" fill="white"></path></g><g fill="white"><path d="M226.71 138.67c-2.2 0-3.99-1.79-3.99-4 0-30.49-19.43-57.44-48.36-67.05l-0.03-0.011c-7.06-2.409-14.55-3.63-22.27-3.63-19.5 0-37.29 6.12-50.11 17.221-13.33 11.59-20.39 27.51-20.42 46.06v0.01c0 2.21-1.79 4-4 4-2.21 0-4-1.79-4-4-0.02-10.56 2.07-20.5 6.21-29.55 3.96-8.67 9.67-16.26 16.97-22.57 14.29-12.359 33.95-19.17 55.35-19.17 8.59 0 16.94 1.36 24.82 4.051l0 0c7.74 2.569 15.01 6.319 21.62 11.149 6.52 4.78 12.25 10.51 17.03 17.021 4.84 6.6 8.6 13.859 11.17 21.6 2.66 7.99 4.01 16.36 4.01 24.87C230.71 136.88 228.92 138.67 226.71 138.67z" fill="white"></path></g><g fill="white"><path d="M303.72 116.72c-2.21 0-4.01-1.8-4.01-4 0-18.07-6.851-35.28-19.29-48.438-13.471-14.311-31.69-22.19-51.3-22.19-18.43 0-35.83 7-49 19.72-0.42 0.44-0.84 0.87-1.24 1.29-0.46 0.47-0.88 0.91-1.28 1.34-0.01 0.011-0.01 0.011-0.01 0.011-0.75 0.81-1.82 1.279-2.93 1.279-1.01 0-1.98-0.38-2.72-1.08-0.79-0.72-1.24-1.71-1.28-2.779-0.03-1.07 0.34-2.09 1.07-2.87 0.49-0.521 0.98-1.021 1.45-1.51 0.4-0.421 0.79-0.82 1.15-1.21l0.13-0.131c14.67-14.229 34.08-22.06 54.65-22.06h0.02c10.99 0 21.63 2.24 31.63 6.65 9.66 4.27 18.23 10.34 25.48 18.05 13.85 14.64 21.479 33.79 21.47 53.93C307.71 114.92 305.92 116.72 303.72 116.72z" fill="white"></path></g><g fill="white"><path d="M388.78 94.89h-0.012c-1.5 0-2.858-0.82-3.55-2.149-0.739-1.421-1.5-2.881-2.31-4.181l-0.04-0.06c-12.931-21.45-35.562-34.26-60.521-34.26-12.84 0-25.39 3.479-36.279 10.06-0.631 0.38-1.34 0.58-2.069 0.58-1.41 0-2.7-0.72-3.431-1.93-1.141-1.891-0.529-4.351 1.359-5.49 12.131-7.34 26.11-11.22 40.41-11.22 13.811 0 27.391 3.64 39.28 10.52 11.52 6.66 21.239 16.22 28.108 27.62l0 0c0.961 1.53 1.73 3.03 2.49 4.47l0.101 0.19c1.011 1.96 0.25 4.38-1.71 5.399C390.05 94.729 389.41 94.89 388.78 94.89z" fill="white"></path></g><g fill="white"><path d="M491.31 227.979c-0.479 0-0.949-0.09-1.398-0.26-2.062-0.77-3.12-3.08-2.352-5.14 2.95-7.891 4.44-16.19 4.44-24.65 0.01-38.38-31.15-70.07-69.45-70.63l-0.49-0.04c-0.05 0-0.21-0.02-0.59-0.02h-0.14c-28.4 0-53.94 16.96-65.062 43.189-3.659 8.75-5.52 18-5.52 27.49v0.01c0 2.21-1.79 4-4 4s-4-1.79-4-4c0-10.56 2.069-20.86 6.149-30.6 5.96-14.08 15.811-26.061 28.5-34.641 13-8.79 28.199-13.439 43.949-13.449h0.11c0.35 0 0.82 0 1.39 0.06 10.44 0.19 20.551 2.39 30.062 6.57 9.188 4.04 17.438 9.729 24.52 16.939 7.08 7.2 12.63 15.561 16.511 24.84 4.021 9.61 6.061 19.801 6.061 30.28 0 9.42-1.66 18.65-4.94 27.44C494.479 226.93 492.97 227.979 491.31 227.979z" fill="white"></path></g><g fill="white"><path d="M317.54 149.2c-2.21 0-4-1.801-4-4.011 0-7.97 1.56-15.72 4.649-23.02 2.979-7.04 7.239-13.38 12.67-18.82 5.431-5.439 11.75-9.71 18.79-12.7 7.29-3.09 15.029-4.659 23.011-4.659 4.43 0 8.88 0.5 13.21 1.479 8.779 2.021 17.13 6.1 24.13 11.811 6.939 5.649 12.569 12.899 16.3 20.96 0.931 2 0.05 4.39-1.95 5.31-0.529 0.25-1.1 0.37-1.68 0.37-1.55 0-2.979-0.91-3.63-2.32-6.58-14.229-19.641-24.819-34.95-28.33-3.79-0.859-7.53-1.279-11.43-1.29-13.641 0.01-26.471 5.339-36.141 15.02-9.659 9.689-14.979 22.55-14.979 36.189C321.54 147.399 319.74 149.2 317.54 149.2z" fill="white"></path></g><g fill="white"><path d="M103.98 295.99c-2.21 0-4-1.801-4-4 0-2.211 1.79-4 4-4h332.93c2.21 0 4 1.789 4 4 0 2.199-1.79 4-4 4H103.99C103.98 295.99 103.98 295.99 103.98 295.99z" fill="white"></path></g><g fill="white"><path d="M149.18 223.16c-7.21 0-13.98-2.801-19.07-7.9-5.09-5.09-7.9-11.86-7.9-19.07 0-7.199 2.81-13.979 7.9-19.069 5.09-5.101 11.86-7.9 19.07-7.91l0 0 0 0c7.2 0.01 13.97 2.81 19.06 7.91 5.09 5.09 7.9 11.87 7.9 19.069 0 7.21-2.81 13.98-7.9 19.07C163.15 220.359 156.38 223.16 149.18 223.16zM149.18 177.21c-10.44 0.02-18.95 8.54-18.97 18.979 0.02 10.44 8.53 18.96 18.97 18.971 10.43-0.011 18.94-8.53 18.96-18.971C168.12 185.75 159.61 177.229 149.18 177.21L149.18 177.21z" fill="white"></path></g><g fill="white"><path d="M226.72 184.609L226.72 184.609c-7.23-0.01-14.02-2.819-19.11-7.909-5.09-5.08-7.9-11.851-7.92-19.061 0.02-7.21 2.83-13.979 7.92-19.06 5.09-5.09 11.88-7.891 19.11-7.91l0 0 0 0 0 0c14.82 0.01 26.89 12.1 26.9 26.97C253.61 172.51 241.54 184.609 226.72 184.609zM226.72 138.67c-10.49 0-19.03 8.51-19.03 18.97s8.54 18.97 19.03 18.97c10.4-0.02 18.88-8.529 18.9-18.97C245.6 147.2 237.12 138.689 226.72 138.67L226.72 138.67z" fill="white"></path></g><g fill="white"><path d="M346.75 247.939L346.75 247.939c-7.23-0.01-14.01-2.819-19.101-7.909-5.101-5.08-7.909-11.851-7.921-19.061 0.012-7.229 2.82-14.02 7.921-19.12 5.091-5.09 11.869-7.91 19.101-7.92l0 0 0 0c7.22 0 13.979 2.811 19.04 7.92 5.069 5.09 7.859 11.88 7.859 19.12-0.011 7.2-2.811 13.97-7.869 19.05C360.71 245.12 353.95 247.93 346.75 247.939zM346.75 201.93c-10.48 0.01-19.021 8.55-19.021 19.04 0 10.46 8.53 18.97 19.021 18.97 10.42 0 18.899-8.51 18.899-18.97C365.649 210.479 357.17 201.939 346.75 201.93L346.75 201.93z" fill="white"></path></g><g fill="white"><path d="M313.689 184.43L313.689 184.43c-11.979 0-21.721-9.729-21.729-21.67 0-5.81 2.261-11.27 6.36-15.38 4.108-4.1 9.56-6.37 15.369-6.37 1.761 0 3.311 0.18 4.75 0.54 4.739 1.07 9.039 3.74 12.119 7.53 3.131 3.85 4.86 8.71 4.86 13.68 0 2.1-0.32 4.24-0.94 6.36l-0.02 0.069c-1.391 4.391-4.08 8.17-7.78 10.931C322.899 182.939 318.41 184.43 313.689 184.43zM313.689 149.01c-7.561 0.021-13.721 6.18-13.729 13.75 0.01 7.521 6.17 13.66 13.729 13.67h0.021c5.99 0 11.26-3.86 13.1-9.6 0.4-1.34 0.61-2.78 0.61-4.07 0.021-6.4-4.53-12.04-10.8-13.42l-0.13-0.03C315.7 149.109 314.79 149.01 313.689 149.01L313.689 149.01z" fill="white"></path></g><g fill="white"><path d="M414.069 194.12L414.069 194.12c-5.811-0.011-11.261-2.271-15.369-6.37-4.102-4.11-6.36-9.57-6.36-15.37 0.01-5.811 2.271-11.26 6.38-15.34 4.09-4.08 9.55-6.33 15.351-6.34l0 0 0 0 0 0 0 0c5.79 0.01 11.221 2.26 15.311 6.34 4.101 4.09 6.36 9.54 6.36 15.34C435.74 184.359 426.02 194.109 414.069 194.12zM414.069 158.7c-7.569 0-13.729 6.14-13.729 13.68 0.01 7.56 6.17 13.72 13.729 13.74 7.529-0.021 13.659-6.181 13.671-13.74C427.729 164.83 421.6 158.7 414.069 158.7L414.069 158.7z" fill="white"></path></g><g fill="white"><path d="M286.24 424.5c-2.2 0-4-1.79-4-4 0-2.2 1.8-4 4-4h106.55c8.68 0 16.859-3.4 23.06-9.59 6.2-6.2 9.61-14.4 9.61-23.092 0-8.688-3.41-16.889-9.61-23.09-6.188-6.188-14.38-9.59-23.06-9.59H270.529c-2.199 0-4-1.8-4-4 0-2.209 1.801-4 4-4H392.79c22.41 0.01 40.649 18.26 40.67 40.68-0.021 22.422-18.26 40.672-40.67 40.682H286.24zM216.24 424.5h-69.53c-2.21 0-4-1.79-4-4 0-2.2 1.79-4 4-4h69.53c2.21 0 4 1.8 4 4C220.24 422.71 218.45 424.5 216.24 424.5z" fill="white"></path></g><g fill="white"><path d="M270.54 351.141c-2.21 0-4-1.801-4-4v-55.15c0-2.211 1.79-4 4-4 2.2 0 4 1.789 4 4v55.148C274.54 349.34 272.74 351.141 270.54 351.141z" fill="white"></path></g><g fill="white"><path d="M59.73 478.859c-1.05 0-2.08-0.42-2.82-1.17-0.75-0.739-1.18-1.771-1.18-2.819V363.55c0-1.05 0.43-2.079 1.17-2.819 0.75-0.75 1.78-1.181 2.83-1.181 27.69 0.011 51.06 6.28 67.57 18.14 7.55 5.41 13.43 11.842 17.48 19.11 3.96 7.101 5.96 14.62 5.95 22.341 0 0.479 0 0.959-0.02 1.489l0 0c-0.25 7.63-2.43 15.01-6.49 21.95-4.16 7.12-10.09 13.398-17.63 18.66C110.14 472.77 87.02 478.859 59.73 478.859zM63.73 367.6V470.82c23.87-0.55 44.02-6.13 58.27-16.13 12.91-9.08 20.27-21.271 20.71-34.319 0.02-0.41 0.02-0.83 0.02-1.23-0.01-13.199-7.15-25.619-20.1-34.949C108.33 373.891 87.96 368.16 63.73 367.6z" fill="white"></path></g><g fill="white"><path d="M59.73 397.859H16.94c-2.21 0-4-1.791-4-4 0-2.199 1.79-4 4-4h42.79c2.21 0 4 1.801 4 4C63.73 396.068 61.94 397.859 59.73 397.859z" fill="white"></path></g><g fill="white"><path d="M59.73 448.55H16.94c-2.21 0-4-1.79-4-3.99 0-2.21 1.79-4 4-4h42.79c2.21 0 4 1.79 4 4C63.73 446.76 61.94 448.55 59.73 448.55z" fill="white"></path></g><g fill="white"><path d="M87.56 437.13c-2.2 0-3.99-1.79-3.99-3.99V400.9c0-2.211 1.79-4 3.99-4 2.21 0 4 1.789 4 4v32.239C91.56 435.34 89.77 437.13 87.56 437.13z" fill="white"></path></g><g fill="white"><path d="M110.59 430.52c-2.21 0-4-1.8-4-4v-19c0-2.209 1.79-4 4-4 2.2 0 4 1.791 4 4v19C114.59 428.72 112.79 430.52 110.59 430.52z" fill="white"></path></g></g></g></g></g></svg></g></svg></g></svg></g><defs><mask></mask></defs><mask><g id="SvgjsG2021"><svg viewBox="0 0 395.52 96.78023726612967" height="96.78023726612967" width="395.52"><g><svg viewBox="0 0 625.3503579266593 153.0176881437126" height="96.78023726612967" width="395.52"><g><rect width="9.985016665017486" height="111.27552574850299" x="421.6587870811976" y="20.87108119760481" fill="black" opacity="1" stroke-width="0" stroke="transparent" fill-opacity="1" class="rect-qz-0" rx="1%" id="SvgjsRect2020" data-palette-color="url(#4720ebc8-274b-47db-8ae6-c7dd99ee3bd3)"></rect></g><g transform="matrix(1,0,0,1,0,21.147885988023965)"><svg viewBox="0 0 395.52 110.72191616766467" height="110.72191616766467" width="395.52"><g id="SvgjsG2019"><svg viewBox="0 0 395.52 110.72191616766467" height="110.72191616766467" width="395.52" id="SvgjsSvg2018"><g><svg viewBox="0 0 395.52 110.72191616766467" height="110.72191616766467" width="395.52"><g transform="matrix(1,0,0,1,0,0)"><svg width="395.52" viewBox="1.23 -33.48 150.28 42.08" height="110.72191616766467" data-palette-color="url(#4720ebc8-274b-47db-8ae6-c7dd99ee3bd3)"><g class="wordmark-text-0" data-fill-palette-color="primary" id="SvgjsG2017"><path d="M17.57 0L10.95 0 1.23-31.95 5.58-31.95 13.95-3.15 14.55-3.15 22.95-31.95 27.28-31.95 17.57 0ZM35.92 0L31.87 0 31.87-24.4 35.92-24.4 35.92 0ZM33.9-28.4L33.9-28.4Q32.65-28.4 32.03-29.06 31.42-29.73 31.42-30.88L31.42-30.88 31.42-31Q31.42-32.18 32.03-32.83 32.65-33.48 33.9-33.48L33.9-33.48Q35.15-33.48 35.77-32.83 36.4-32.18 36.4-31L36.4-31 36.4-30.88Q36.4-29.7 35.77-29.05 35.15-28.4 33.9-28.4ZM50.25 0.55L50.25 0.55Q47.3 0.55 45.09-0.09 42.9-0.73 41.45-1.48L41.45-1.48 41.07-5.23Q42.9-4.28 45.08-3.58 47.27-2.88 50.05-2.88L50.05-2.88Q52.87-2.88 54.3-3.78 55.72-4.67 55.72-6.45L55.72-6.45 55.72-6.73Q55.72-7.88 55.18-8.63 54.65-9.38 53.25-9.95 51.84-10.53 49.27-11.1L49.27-11.1Q46.2-11.78 44.42-12.69 42.65-13.6 41.88-14.95 41.12-16.3 41.12-18.25L41.12-18.25 41.12-18.48Q41.12-21.68 43.34-23.33 45.57-24.98 50.05-24.98L50.05-24.98Q52.92-24.98 55.03-24.33 57.14-23.68 58.5-22.88L58.5-22.88 58.87-19.45Q57.25-20.4 55.15-21.03 53.05-21.65 50.42-21.65L50.42-21.65Q48.52-21.65 47.34-21.26 46.17-20.88 45.65-20.16 45.12-19.45 45.12-18.45L45.12-18.45 45.12-18.25Q45.12-17.15 45.65-16.39 46.17-15.63 47.53-15.06 48.9-14.5 51.32-13.98L51.32-13.98Q54.45-13.35 56.28-12.48 58.12-11.6 58.92-10.26 59.72-8.93 59.72-6.83L59.72-6.83 59.72-6.4Q59.72-2.95 57.32-1.2 54.92 0.55 50.25 0.55ZM73.54 0.5L73.54 0.5Q70.72 0.5 68.99-0.35 67.27-1.2 66.49-2.93 65.72-4.65 65.72-7.23L65.72-7.23 65.72-22.63 69.72-22.63 69.72-7.7Q69.72-5.3 70.82-4.16 71.92-3.03 74.52-3.03L74.52-3.03Q75.99-3.03 77.36-3.35 78.72-3.68 79.92-4.28L79.92-4.28 79.54-0.8Q78.37-0.2 76.79 0.15 75.22 0.5 73.54 0.5ZM79.29-20.8L61.72-20.8 61.72-24.05 79.67-24.05 79.29-20.8ZM69.62-23.65L65.74-23.65 65.72-30.5 69.79-31.03 69.62-23.65ZM102.94 0L98.92 0 99.09-5.93 98.94-6.55 98.94-14.33 98.97-15.75Q98.97-18.73 97.45-20.15 95.94-21.58 92.67-21.58L92.67-21.58Q90.04-21.58 87.85-20.83 85.67-20.08 83.97-19.07L83.97-19.07 84.34-22.53Q85.29-23.1 86.6-23.66 87.92-24.23 89.6-24.6 91.29-24.98 93.32-24.98L93.32-24.98Q95.94-24.98 97.78-24.34 99.62-23.7 100.75-22.5 101.89-21.3 102.42-19.6 102.94-17.9 102.94-15.8L102.94-15.8 102.94 0ZM90.52 0.53L90.52 0.53Q86.89 0.53 84.95-1.24 83.02-3 83.02-6.28L83.02-6.28 83.02-7Q83.02-10.38 85.1-12.04 87.19-13.7 91.74-14.35L91.74-14.35 99.47-15.45 99.69-12.5 92.24-11.43Q89.44-11.03 88.24-10.06 87.04-9.1 87.04-7.23L87.04-7.23 87.04-6.83Q87.04-4.9 88.23-3.88 89.42-2.85 91.79-2.85L91.79-2.85Q93.89-2.85 95.39-3.58 96.89-4.3 97.82-5.53 98.74-6.75 99.07-8.25L99.07-8.25 99.69-5.5 98.92-5.5Q98.57-3.9 97.6-2.53 96.64-1.15 94.92-0.31 93.19 0.53 90.52 0.53ZM116.76 0.55L116.76 0.55Q113.81 0.55 111.61-0.09 109.41-0.73 107.96-1.48L107.96-1.48 107.59-5.23Q109.41-4.28 111.6-3.58 113.79-2.88 116.56-2.88L116.56-2.88Q119.39-2.88 120.81-3.78 122.24-4.67 122.24-6.45L122.24-6.45 122.24-6.73Q122.24-7.88 121.7-8.63 121.16-9.38 119.76-9.95 118.36-10.53 115.79-11.1L115.79-11.1Q112.71-11.78 110.94-12.69 109.16-13.6 108.4-14.95 107.64-16.3 107.64-18.25L107.64-18.25 107.64-18.48Q107.64-21.68 109.86-23.33 112.09-24.98 116.56-24.98L116.56-24.98Q119.44-24.98 121.55-24.33 123.66-23.68 125.01-22.88L125.01-22.88 125.39-19.45Q123.76-20.4 121.66-21.03 119.56-21.65 116.94-21.65L116.94-21.65Q115.04-21.65 113.86-21.26 112.69-20.88 112.16-20.16 111.64-19.45 111.64-18.45L111.64-18.45 111.64-18.25Q111.64-17.15 112.16-16.39 112.69-15.63 114.05-15.06 115.41-14.5 117.84-13.98L117.84-13.98Q120.96-13.35 122.8-12.48 124.64-11.6 125.44-10.26 126.24-8.93 126.24-6.83L126.24-6.83 126.24-6.4Q126.24-2.95 123.84-1.2 121.44 0.55 116.76 0.55ZM139.84-3.78L142.16-3.78 140.04-2.85 147.34-24.4 151.51-24.4 140.04 8.6 135.94 8.6 139.79-2.55 141.56-1 136.96-1 128.99-24.4 133.19-24.4 139.84-3.78Z" fill="black"></path></g></svg></g></svg></g></svg></g></svg></g><g transform="matrix(1,0,0,1,457.7825908274127,0)"><svg viewBox="0 0 167.5677670992466 153.0176881437126" height="153.0176881437126" width="167.5677670992466"><g><svg xmlns="http://www.w3.org/2000/svg" xmlns:xlink="http://www.w3.org/1999/xlink" version="1.1" x="0" y="0" viewBox="12.940000000000001 34.08999999999999 487.061 444.769" enable-background="new 0 0 512 512" xml:space="preserve" height="153.0176881437126" width="167.5677670992466" class="icon-icon-0" data-fill-palette-color="accent" id="SvgjsSvg2016"><g fill="black"><g fill="black"><g fill="black"><g fill="black"><g fill="black"><path d="M59.73 478.859c-1.05 0-2.08-0.42-2.82-1.17-0.75-0.739-1.18-1.771-1.18-2.819V363.55c0-1.05 0.43-2.079 1.17-2.819 0.75-0.75 1.78-1.181 2.83-1.181 27.69 0.011 51.06 6.28 67.57 18.14 7.55 5.41 13.43 11.842 17.48 19.11 3.96 7.101 5.96 14.62 5.95 22.341 0 0.479 0 0.959-0.02 1.489l0 0c-0.25 7.63-2.43 15.01-6.49 21.95-4.16 7.12-10.09 13.398-17.63 18.66C110.14 472.77 87.02 478.859 59.73 478.859zM63.73 367.6V470.82c23.87-0.55 44.02-6.13 58.27-16.13 12.91-9.08 20.27-21.271 20.71-34.319 0.02-0.41 0.02-0.83 0.02-1.23-0.01-13.199-7.15-25.619-20.1-34.949C108.33 373.891 87.96 368.16 63.73 367.6z" fill="black"></path></g><g fill="black"><path d="M414.069 194.12L414.069 194.12c-5.811-0.011-11.261-2.271-15.369-6.37-4.102-4.11-6.36-9.57-6.36-15.37 0.01-5.811 2.271-11.26 6.38-15.34 4.09-4.08 9.55-6.33 15.351-6.34 5.79 0.01 11.221 2.26 15.311 6.34 4.101 4.09 6.36 9.54 6.36 15.34C435.74 184.359 426.02 194.109 414.069 194.12zM414.069 158.7c-7.569 0-13.729 6.14-13.729 13.68 0.01 7.56 6.17 13.72 13.729 13.74 7.529-0.021 13.659-6.181 13.671-13.74C427.729 164.83 421.6 158.7 414.069 158.7L414.069 158.7z" fill="black"></path></g><g fill="black"><path d="M313.689 184.43L313.689 184.43c-11.979 0-21.721-9.729-21.729-21.67 0-5.81 2.261-11.27 6.36-15.38 4.108-4.1 9.56-6.37 15.369-6.37 1.761 0 3.311 0.18 4.75 0.54 4.739 1.07 9.039 3.74 12.119 7.53 3.131 3.85 4.86 8.71 4.86 13.68 0 2.1-0.32 4.24-0.94 6.36l-0.02 0.069c-1.391 4.391-4.08 8.17-7.78 10.931C322.899 182.939 318.41 184.43 313.689 184.43zM313.689 149.01c-7.561 0.021-13.721 6.18-13.729 13.75 0.01 7.521 6.17 13.66 13.729 13.67h0.021c5.99 0 11.26-3.86 13.1-9.6 0.4-1.34 0.61-2.78 0.61-4.07 0.021-6.4-4.53-12.04-10.8-13.42l-0.13-0.03C315.7 149.109 314.79 149.01 313.689 149.01L313.689 149.01z" fill="black"></path></g><g fill="black"><path d="M226.72 184.609L226.72 184.609c-7.23-0.01-14.02-2.819-19.11-7.909-5.09-5.08-7.9-11.851-7.92-19.061 0.02-7.21 2.83-13.979 7.92-19.06 5.09-5.09 11.88-7.891 19.11-7.91 14.82 0.01 26.89 12.1 26.9 26.97C253.61 172.51 241.54 184.609 226.72 184.609zM226.72 138.67c-10.49 0-19.03 8.51-19.03 18.97s8.54 18.97 19.03 18.97c10.4-0.02 18.88-8.529 18.9-18.97C245.6 147.2 237.12 138.689 226.72 138.67L226.72 138.67z" fill="black"></path></g><g fill="black"><path d="M346.75 247.939L346.75 247.939c-7.23-0.01-14.01-2.819-19.101-7.909-5.101-5.08-7.909-11.851-7.921-19.061 0.012-7.229 2.82-14.02 7.921-19.12 5.091-5.09 11.869-7.91 19.101-7.92l0 0 0 0c7.22 0 13.979 2.811 19.04 7.92 5.069 5.09 7.859 11.88 7.859 19.12-0.011 7.2-2.811 13.97-7.869 19.05C360.71 245.12 353.95 247.93 346.75 247.939zM346.75 201.93c-10.48 0.01-19.021 8.55-19.021 19.04 0 10.46 8.53 18.97 19.021 18.97 10.42 0 18.899-8.51 18.899-18.97C365.649 210.479 357.17 201.939 346.75 201.93L346.75 201.93z" fill="black"></path></g><g fill="black"><path d="M149.18 223.16c-7.21 0-13.98-2.801-19.07-7.9-5.09-5.09-7.9-11.86-7.9-19.07 0-7.199 2.81-13.979 7.9-19.069 5.09-5.101 11.86-7.9 19.07-7.91l0 0 0 0c7.2 0.01 13.97 2.81 19.06 7.91 5.09 5.09 7.9 11.87 7.9 19.069 0 7.21-2.81 13.98-7.9 19.07C163.15 220.359 156.38 223.16 149.18 223.16zM149.18 177.21c-10.44 0.02-18.95 8.54-18.97 18.979 0.02 10.44 8.53 18.96 18.97 18.971 10.43-0.011 18.94-8.53 18.96-18.971C168.12 185.75 159.61 177.229 149.18 177.21L149.18 177.21z" fill="black"></path></g><g fill="black"><path d="M352.58 172.89c-0.05 0-0.11 0-0.16-0.01l-21.939-0.9c-1.221-0.05-2.381-0.67-3.091-1.67-0.71-0.99-0.93-2.29-0.58-3.46 0.392-1.33 0.61-2.79 0.61-4.09 0.021-6.4-4.521-12.04-10.8-13.42-1.051-0.23-1.971-0.88-2.53-1.78-0.521-0.83-0.72-1.859-0.55-2.83 0.06-7.92 1.67-15.609 4.77-22.85 3.011-7 7.28-13.28 12.7-18.68 5.42-5.391 11.73-9.631 18.74-12.591 7.26-3.069 14.97-4.619 22.91-4.619h0.02c4.431 0 8.86 0.5 13.2 1.479 8.78 2.021 17.12 6.1 24.12 11.812 6.939 5.649 12.569 12.899 16.3 20.96 0.26 0.569 0.391 1.229 0.36 1.859l-0.062 1.38c-0.05 1.13-0.568 2.181-1.438 2.9-0.86 0.71-2 1.04-3.11 0.88-0.04 0-0.22-0.02-0.62-0.02h-0.08c-28.42 0-53.96 16.96-65.09 43.21C355.63 171.93 354.189 172.89 352.58 172.89zM335.37 164.18l14.66 0.601c5.93-12.74 15.188-23.69 26.778-31.681 11.83-8.17 25.67-12.91 40.021-13.729-7.09-12.181-19.021-20.96-32.74-24.101-3.8-0.859-7.54-1.279-11.43-1.279-13.642 0-26.471 5.329-36.142 15.01-8.97 9-14.26 20.899-14.909 33.53 4.011 1.569 7.439 4.279 9.909 7.829 2.551 3.65 3.9 7.931 3.9 12.4C335.42 163.22 335.41 163.7 335.37 164.18z" fill="black"></path></g><g fill="black"><path d="M421.56 295.99c-2.21 0-4-1.801-4-4 0-2.211 1.79-4 4-4h10.182c14.829 0 28.81-5.82 39.358-16.381 10.57-10.641 16.392-24.649 16.392-39.46 0-2.71-0.182-5.159-0.551-7.489-0.171-1.051 0.101-2.15 0.739-3.011 0.11-0.149 0.24-0.3 0.38-0.439 2.61-7.48 3.94-15.311 3.94-23.28 0.01-38.38-31.15-70.07-69.45-70.63l-0.49-0.04c-0.05-0.01-0.229-0.02-0.63-0.02h-0.08c-28.42 0-53.96 16.96-65.09 43.21-0.649 1.529-2.149 2.489-3.84 2.439l-19.12-0.79c-1.76 3.63-4.479 6.71-7.88 8.891-3.5 2.25-7.55 3.439-11.729 3.439-11.979 0-21.72-9.72-21.729-21.67 0-5.81 2.26-11.27 6.36-15.38 4.1-4.1 9.56-6.36 15.358-6.37 1-14.12 7.051-27.45 17.062-37.54 10.028-10.1 23.318-16.25 37.438-17.32 4.58-0.34 9.34-0.149 13.891 0.58 1.939 0.311 3.351 1.96 3.359 3.931 0.011 0.22-0.01 0.439-0.05 0.659-0.311 1.95-1.97 3.36-3.939 3.36-0.21 0-0.431-0.01-0.641-0.05-3.92-0.63-7.939-0.8-12.02-0.5-26.5 1.99-47.25 24.42-47.24 51.07 0 0.33-0.04 0.609-0.11 0.939l-0.06 0.24c-0.25 1.03-0.92 1.939-1.83 2.479-0.91 0.551-2.021 0.71-3.05 0.45-0.79-0.2-1.71-0.3-2.801-0.3-7.561 0.021-13.721 6.18-13.729 13.75 0.01 7.521 6.17 13.66 13.729 13.67h0.021c6.021 0 11.29-3.88 13.12-9.649 0.54-1.721 2.18-2.851 3.979-2.79l19.222 0.79c6.239-13.4 16.1-24.761 28.5-32.841 12.75-8.3 27.55-12.689 42.818-12.699h0.15c0.34 0 0.81 0 1.38 0.069 10.43 0.181 20.54 2.391 30.05 6.57 9.19 4.03 17.431 9.729 24.511 16.939 7.069 7.2 12.63 15.561 16.5 24.841 4.021 9.6 6.061 19.79 6.061 30.27 0 9.38-1.65 18.58-4.9 27.33 0.261 2.2 0.392 4.45 0.392 6.89 0 8.58-1.69 16.931-5.04 24.801-3.221 7.579-7.82 14.409-13.681 20.3-5.851 5.859-12.671 10.47-20.271 13.7-7.87 3.34-16.2 5.04-24.76 5.04H421.56V295.99zM351.56 295.99H102.65c-8.57-0.012-16.89-1.7-24.74-5.051-7.59-3.221-14.4-7.84-20.27-13.711-5.86-5.869-10.47-12.699-13.7-20.289-3.34-7.859-5.03-16.199-5.04-24.791 0-5.029 0.62-10.08 1.83-15.02 0.44-1.8 2.04-3.05 3.88-3.05 0.32 0 0.65 0.04 0.96 0.12 2.14 0.52 3.46 2.689 2.93 4.83-1.06 4.319-1.6 8.739-1.6 13.119 0.01 14.841 5.83 28.84 16.4 39.431 10.58 10.58 24.55 16.409 39.35 16.409h248.91c2.2 0 4 1.791 4 4C355.56 294.189 353.76 295.99 351.56 295.99zM346.75 247.939L346.75 247.939c-7.23-0.01-14.01-2.819-19.101-7.909-5.101-5.08-7.909-11.851-7.921-19.061 0.012-7.24 2.82-14.02 7.921-19.12 5.091-5.09 11.869-7.899 19.101-7.92 7.22 0 13.979 2.811 19.04 7.92 5.069 5.09 7.859 11.88 7.859 19.12-0.011 7.2-2.811 13.97-7.869 19.05C360.71 245.12 353.95 247.93 346.75 247.939zM346.75 201.93c-10.48 0.01-19.021 8.55-19.021 19.04 0 10.46 8.53 18.97 19.021 18.97 10.42 0 18.899-8.51 18.899-18.97C365.64 210.47 357.16 201.939 346.75 201.93zM149.18 223.16c-7.21 0-13.98-2.801-19.07-7.9-5.09-5.09-7.9-11.86-7.9-19.07 0.01-7.199 2.81-13.979 7.9-19.069 5.09-5.101 11.86-7.9 19.07-7.91 7.2 0.01 13.97 2.81 19.06 7.91 5.09 5.09 7.9 11.87 7.9 19.069 0 7.21-2.81 13.98-7.9 19.07C163.15 220.359 156.38 223.16 149.18 223.16zM149.18 177.21c-10.44 0.02-18.95 8.54-18.97 18.979 0.02 10.44 8.53 18.96 18.97 18.971 10.43-0.011 18.94-8.53 18.96-18.971C168.12 185.75 159.61 177.229 149.18 177.21L149.18 177.21zM414.069 194.109c-11.979 0-21.729-9.75-21.729-21.729 0.01-5.811 2.271-11.26 6.38-15.34 4.09-4.08 9.55-6.33 15.351-6.34l0 0 0 0c5.79 0.01 11.221 2.26 15.311 6.34 4.101 4.09 6.36 9.54 6.36 15.34C435.74 184.359 426.02 194.109 414.069 194.109zM414.069 158.689c-7.569 0.011-13.729 6.15-13.729 13.69 0.01 7.56 6.17 13.72 13.729 13.74 7.529-0.021 13.659-6.181 13.671-13.74C427.729 164.84 421.6 158.7 414.069 158.689L414.069 158.689zM226.71 184.609L226.71 184.609c-7.22-0.01-14.01-2.819-19.1-7.909-5.09-5.08-7.9-11.851-7.92-19.061 0.02-7.21 2.83-13.979 7.92-19.06 5.09-5.09 11.88-7.891 19.1-7.91 14.83 0.01 26.9 12.1 26.91 26.97C253.61 172.51 241.54 184.609 226.71 184.609zM226.71 138.67c-10.48 0-19.02 8.51-19.02 18.97 0.01 10.46 8.54 18.97 19.02 18.98 10.41-0.021 18.89-8.54 18.91-18.98C245.6 147.2 237.12 138.689 226.71 138.67L226.71 138.67zM46.3 155.67c-0.73 0-1.44-0.2-2.07-0.58-1.2-0.73-1.93-2-1.93-3.41 0-0.729 0.2-1.45 0.58-2.08 2.39-3.96 5.26-7.66 8.53-10.979 6.21-6.29 13.87-11.2 22.17-14.19 0.35-9.96 2.6-19.33 6.69-27.85 3.94-8.2 9.47-15.41 16.44-21.431 14.29-12.359 33.94-19.17 55.35-19.17 7.2 0 14.27 0.96 21.02 2.87l0.38-1.109c0.2-0.601 0.55-1.15 1-1.591 14.67-14.229 34.08-22.06 54.65-22.06h0.01c10.4 0 20.5 2.01 30.041 5.97 9.209 3.83 17.51 9.3 24.67 16.28 5.75-3.26 11.899-5.771 18.279-7.47 11.811-3.15 24.569-3.471 36.521-0.94 1.04 0.22 1.939 0.84 2.521 1.73 0.58 0.899 0.779 1.96 0.561 3.01-0.391 1.84-2.03 3.17-3.91 3.17-0.27 0-0.55-0.03-0.83-0.08-4.77-1.01-9.688-1.52-14.62-1.52-12.68 0-25.08 3.399-35.869 9.819l-0.311 0.3c-0.76 0.761-1.76 1.181-2.84 1.181h-0.051c-1.08-0.01-2.119-0.471-2.859-1.26-13.471-14.311-31.69-22.19-51.3-22.19-18.12 0-35.31 6.8-48.4 19.14l-1.31 3.88c-0.34 1.011-1.06 1.83-2.02 2.311-0.95 0.46-2.05 0.53-3.06 0.189-7.06-2.409-14.55-3.63-22.27-3.63-19.5 0-37.29 6.12-50.11 17.221-13.33 11.59-20.4 27.52-20.42 46.069v0.061c0 1.77-1.14 3.31-2.83 3.819-8.13 2.49-15.59 7.011-21.58 13.08 0 0 0 0.011-0.01 0.011-0.02 0.02-0.05 0.05-0.07 0.069-2.8 2.851-5.26 6.021-7.31 9.431-0.01 0-0.01 0-0.01 0.01C48.99 154.95 47.71 155.67 46.3 155.67z" fill="black"></path></g></g><g fill="black"><g fill="black"><path d="M102.65 295.99L102.65 295.99c-8.56-0.012-16.89-1.7-24.74-5.051-7.59-3.221-14.41-7.83-20.27-13.711-5.87-5.869-10.47-12.688-13.7-20.289-3.34-7.859-5.03-16.199-5.04-24.791 0.01-7.409 1.31-14.729 3.88-21.76-5.48-9.13-8.38-19.59-8.38-30.26 0-6.53 1.05-12.95 3.14-19.07 2.01-5.92 4.95-11.46 8.73-16.47 3.73-4.96 8.2-9.29 13.28-12.86 5.15-3.63 10.8-6.39 16.81-8.229l0.04-0.01c5.65-1.66 11.45-2.5 17.23-2.5 14.36 0 28.21 5.199 39 14.64 10.69 9.36 17.66 22.22 19.61 36.2 0.14 1.05-0.13 2.109-0.77 2.96-0.65 0.85-1.59 1.399-2.64 1.55-2.16 0.29-4.22-1.26-4.52-3.41-3.48-25.05-25.26-43.939-50.66-43.939h-0.02c-4.99 0-10.01 0.729-14.92 2.159-0.01 0-0.01 0-0.01 0.011-21.72 6.63-36.31 26.31-36.3 48.97 0 9.85 2.83 19.41 8.19 27.65 0.71 1.09 0.84 2.47 0.35 3.68-2.64 6.54-4.04 13.7-4.04 20.689 0 14.841 5.83 28.841 16.4 39.431 10.58 10.58 24.55 16.41 39.35 16.41 0.01 0 0.01 0 0.02 0 2.19 0.01 3.98 1.8 3.98 4C106.65 294.189 104.86 295.99 102.65 295.99z" fill="black"></path></g><g fill="black"><path d="M431.74 295.99c-2.2 0-4-1.801-4-4 0-2.211 1.8-4 4-4 14.829 0 28.81-5.82 39.358-16.381 10.57-10.641 16.392-24.649 16.392-39.46 0-2.71-0.182-5.159-0.551-7.489l-0.011-0.091c-3.739-27.47-27.45-48.189-55.16-48.189h-0.028c-2.2 0-4-1.8-4-4 0-2.21 1.8-4 4-4 15.47 0 30.39 5.65 42.028 15.91 11.53 10.16 19.021 24.08 21.08 39.2 0.432 2.729 0.642 5.56 0.642 8.659 0 8.58-1.69 16.931-5.04 24.801-3.222 7.579-7.82 14.409-13.682 20.3-5.85 5.859-12.67 10.47-20.27 13.7C448.63 294.29 440.3 295.99 431.74 295.99z" fill="black"></path></g><g fill="black"><path d="M226.71 138.67c-2.2 0-3.99-1.79-3.99-4 0-30.49-19.43-57.44-48.36-67.05l-0.03-0.011c-7.06-2.409-14.55-3.63-22.27-3.63-19.5 0-37.29 6.12-50.11 17.221-13.33 11.59-20.39 27.51-20.42 46.06v0.01c0 2.21-1.79 4-4 4-2.21 0-4-1.79-4-4-0.02-10.56 2.07-20.5 6.21-29.55 3.96-8.67 9.67-16.26 16.97-22.57 14.29-12.359 33.95-19.17 55.35-19.17 8.59 0 16.94 1.36 24.82 4.051l0 0c7.74 2.569 15.01 6.319 21.62 11.149 6.52 4.78 12.25 10.51 17.03 17.021 4.84 6.6 8.6 13.859 11.17 21.6 2.66 7.99 4.01 16.36 4.01 24.87C230.71 136.88 228.92 138.67 226.71 138.67z" fill="black"></path></g><g fill="black"><path d="M303.72 116.72c-2.21 0-4.01-1.8-4.01-4 0-18.07-6.851-35.28-19.29-48.438-13.471-14.311-31.69-22.19-51.3-22.19-18.43 0-35.83 7-49 19.72-0.42 0.44-0.84 0.87-1.24 1.29-0.46 0.47-0.88 0.91-1.28 1.34-0.01 0.011-0.01 0.011-0.01 0.011-0.75 0.81-1.82 1.279-2.93 1.279-1.01 0-1.98-0.38-2.72-1.08-0.79-0.72-1.24-1.71-1.28-2.779-0.03-1.07 0.34-2.09 1.07-2.87 0.49-0.521 0.98-1.021 1.45-1.51 0.4-0.421 0.79-0.82 1.15-1.21l0.13-0.131c14.67-14.229 34.08-22.06 54.65-22.06h0.02c10.99 0 21.63 2.24 31.63 6.65 9.66 4.27 18.23 10.34 25.48 18.05 13.85 14.64 21.479 33.79 21.47 53.93C307.71 114.92 305.92 116.72 303.72 116.72z" fill="black"></path></g><g fill="black"><path d="M388.78 94.89h-0.012c-1.5 0-2.858-0.82-3.55-2.149-0.739-1.421-1.5-2.881-2.31-4.181l-0.04-0.06c-12.931-21.45-35.562-34.26-60.521-34.26-12.84 0-25.39 3.479-36.279 10.06-0.631 0.38-1.34 0.58-2.069 0.58-1.41 0-2.7-0.72-3.431-1.93-1.141-1.891-0.529-4.351 1.359-5.49 12.131-7.34 26.11-11.22 40.41-11.22 13.811 0 27.391 3.64 39.28 10.52 11.52 6.66 21.239 16.22 28.108 27.62l0 0c0.961 1.53 1.73 3.03 2.49 4.47l0.101 0.19c1.011 1.96 0.25 4.38-1.71 5.399C390.05 94.729 389.41 94.89 388.78 94.89z" fill="black"></path></g><g fill="black"><path d="M491.31 227.979c-0.479 0-0.949-0.09-1.398-0.26-2.062-0.77-3.12-3.08-2.352-5.14 2.95-7.891 4.44-16.19 4.44-24.65 0.01-38.38-31.15-70.07-69.45-70.63l-0.49-0.04c-0.05 0-0.21-0.02-0.59-0.02h-0.14c-28.4 0-53.94 16.96-65.062 43.189-3.659 8.75-5.52 18-5.52 27.49v0.01c0 2.21-1.79 4-4 4s-4-1.79-4-4c0-10.56 2.069-20.86 6.149-30.6 5.96-14.08 15.811-26.061 28.5-34.641 13-8.79 28.199-13.439 43.949-13.449h0.11c0.35 0 0.82 0 1.39 0.06 10.44 0.19 20.551 2.39 30.062 6.57 9.188 4.04 17.438 9.729 24.52 16.939 7.08 7.2 12.63 15.561 16.511 24.84 4.021 9.61 6.061 19.801 6.061 30.28 0 9.42-1.66 18.65-4.94 27.44C494.479 226.93 492.97 227.979 491.31 227.979z" fill="black"></path></g><g fill="black"><path d="M317.54 149.2c-2.21 0-4-1.801-4-4.011 0-7.97 1.56-15.72 4.649-23.02 2.979-7.04 7.239-13.38 12.67-18.82 5.431-5.439 11.75-9.71 18.79-12.7 7.29-3.09 15.029-4.659 23.011-4.659 4.43 0 8.88 0.5 13.21 1.479 8.779 2.021 17.13 6.1 24.13 11.811 6.939 5.649 12.569 12.899 16.3 20.96 0.931 2 0.05 4.39-1.95 5.31-0.529 0.25-1.1 0.37-1.68 0.37-1.55 0-2.979-0.91-3.63-2.32-6.58-14.229-19.641-24.819-34.95-28.33-3.79-0.859-7.53-1.279-11.43-1.29-13.641 0.01-26.471 5.339-36.141 15.02-9.659 9.689-14.979 22.55-14.979 36.189C321.54 147.399 319.74 149.2 317.54 149.2z" fill="black"></path></g><g fill="black"><path d="M103.98 295.99c-2.21 0-4-1.801-4-4 0-2.211 1.79-4 4-4h332.93c2.21 0 4 1.789 4 4 0 2.199-1.79 4-4 4H103.99C103.98 295.99 103.98 295.99 103.98 295.99z" fill="black"></path></g><g fill="black"><path d="M149.18 223.16c-7.21 0-13.98-2.801-19.07-7.9-5.09-5.09-7.9-11.86-7.9-19.07 0-7.199 2.81-13.979 7.9-19.069 5.09-5.101 11.86-7.9 19.07-7.91l0 0 0 0c7.2 0.01 13.97 2.81 19.06 7.91 5.09 5.09 7.9 11.87 7.9 19.069 0 7.21-2.81 13.98-7.9 19.07C163.15 220.359 156.38 223.16 149.18 223.16zM149.18 177.21c-10.44 0.02-18.95 8.54-18.97 18.979 0.02 10.44 8.53 18.96 18.97 18.971 10.43-0.011 18.94-8.53 18.96-18.971C168.12 185.75 159.61 177.229 149.18 177.21L149.18 177.21z" fill="black"></path></g><g fill="black"><path d="M226.72 184.609L226.72 184.609c-7.23-0.01-14.02-2.819-19.11-7.909-5.09-5.08-7.9-11.851-7.92-19.061 0.02-7.21 2.83-13.979 7.92-19.06 5.09-5.09 11.88-7.891 19.11-7.91l0 0 0 0 0 0c14.82 0.01 26.89 12.1 26.9 26.97C253.61 172.51 241.54 184.609 226.72 184.609zM226.72 138.67c-10.49 0-19.03 8.51-19.03 18.97s8.54 18.97 19.03 18.97c10.4-0.02 18.88-8.529 18.9-18.97C245.6 147.2 237.12 138.689 226.72 138.67L226.72 138.67z" fill="black"></path></g><g fill="black"><path d="M346.75 247.939L346.75 247.939c-7.23-0.01-14.01-2.819-19.101-7.909-5.101-5.08-7.909-11.851-7.921-19.061 0.012-7.229 2.82-14.02 7.921-19.12 5.091-5.09 11.869-7.91 19.101-7.92l0 0 0 0c7.22 0 13.979 2.811 19.04 7.92 5.069 5.09 7.859 11.88 7.859 19.12-0.011 7.2-2.811 13.97-7.869 19.05C360.71 245.12 353.95 247.93 346.75 247.939zM346.75 201.93c-10.48 0.01-19.021 8.55-19.021 19.04 0 10.46 8.53 18.97 19.021 18.97 10.42 0 18.899-8.51 18.899-18.97C365.649 210.479 357.17 201.939 346.75 201.93L346.75 201.93z" fill="black"></path></g><g fill="black"><path d="M313.689 184.43L313.689 184.43c-11.979 0-21.721-9.729-21.729-21.67 0-5.81 2.261-11.27 6.36-15.38 4.108-4.1 9.56-6.37 15.369-6.37 1.761 0 3.311 0.18 4.75 0.54 4.739 1.07 9.039 3.74 12.119 7.53 3.131 3.85 4.86 8.71 4.86 13.68 0 2.1-0.32 4.24-0.94 6.36l-0.02 0.069c-1.391 4.391-4.08 8.17-7.78 10.931C322.899 182.939 318.41 184.43 313.689 184.43zM313.689 149.01c-7.561 0.021-13.721 6.18-13.729 13.75 0.01 7.521 6.17 13.66 13.729 13.67h0.021c5.99 0 11.26-3.86 13.1-9.6 0.4-1.34 0.61-2.78 0.61-4.07 0.021-6.4-4.53-12.04-10.8-13.42l-0.13-0.03C315.7 149.109 314.79 149.01 313.689 149.01L313.689 149.01z" fill="black"></path></g><g fill="black"><path d="M414.069 194.12L414.069 194.12c-5.811-0.011-11.261-2.271-15.369-6.37-4.102-4.11-6.36-9.57-6.36-15.37 0.01-5.811 2.271-11.26 6.38-15.34 4.09-4.08 9.55-6.33 15.351-6.34l0 0 0 0 0 0 0 0c5.79 0.01 11.221 2.26 15.311 6.34 4.101 4.09 6.36 9.54 6.36 15.34C435.74 184.359 426.02 194.109 414.069 194.12zM414.069 158.7c-7.569 0-13.729 6.14-13.729 13.68 0.01 7.56 6.17 13.72 13.729 13.74 7.529-0.021 13.659-6.181 13.671-13.74C427.729 164.83 421.6 158.7 414.069 158.7L414.069 158.7z" fill="black"></path></g><g fill="black"><path d="M286.24 424.5c-2.2 0-4-1.79-4-4 0-2.2 1.8-4 4-4h106.55c8.68 0 16.859-3.4 23.06-9.59 6.2-6.2 9.61-14.4 9.61-23.092 0-8.688-3.41-16.889-9.61-23.09-6.188-6.188-14.38-9.59-23.06-9.59H270.529c-2.199 0-4-1.8-4-4 0-2.209 1.801-4 4-4H392.79c22.41 0.01 40.649 18.26 40.67 40.68-0.021 22.422-18.26 40.672-40.67 40.682H286.24zM216.24 424.5h-69.53c-2.21 0-4-1.79-4-4 0-2.2 1.79-4 4-4h69.53c2.21 0 4 1.8 4 4C220.24 422.71 218.45 424.5 216.24 424.5z" fill="black"></path></g><g fill="black"><path d="M270.54 351.141c-2.21 0-4-1.801-4-4v-55.15c0-2.211 1.79-4 4-4 2.2 0 4 1.789 4 4v55.148C274.54 349.34 272.74 351.141 270.54 351.141z" fill="black"></path></g><g fill="black"><path d="M59.73 478.859c-1.05 0-2.08-0.42-2.82-1.17-0.75-0.739-1.18-1.771-1.18-2.819V363.55c0-1.05 0.43-2.079 1.17-2.819 0.75-0.75 1.78-1.181 2.83-1.181 27.69 0.011 51.06 6.28 67.57 18.14 7.55 5.41 13.43 11.842 17.48 19.11 3.96 7.101 5.96 14.62 5.95 22.341 0 0.479 0 0.959-0.02 1.489l0 0c-0.25 7.63-2.43 15.01-6.49 21.95-4.16 7.12-10.09 13.398-17.63 18.66C110.14 472.77 87.02 478.859 59.73 478.859zM63.73 367.6V470.82c23.87-0.55 44.02-6.13 58.27-16.13 12.91-9.08 20.27-21.271 20.71-34.319 0.02-0.41 0.02-0.83 0.02-1.23-0.01-13.199-7.15-25.619-20.1-34.949C108.33 373.891 87.96 368.16 63.73 367.6z" fill="black"></path></g><g fill="black"><path d="M59.73 397.859H16.94c-2.21 0-4-1.791-4-4 0-2.199 1.79-4 4-4h42.79c2.21 0 4 1.801 4 4C63.73 396.068 61.94 397.859 59.73 397.859z" fill="black"></path></g><g fill="black"><path d="M59.73 448.55H16.94c-2.21 0-4-1.79-4-3.99 0-2.21 1.79-4 4-4h42.79c2.21 0 4 1.79 4 4C63.73 446.76 61.94 448.55 59.73 448.55z" fill="black"></path></g><g fill="black"><path d="M87.56 437.13c-2.2 0-3.99-1.79-3.99-3.99V400.9c0-2.211 1.79-4 3.99-4 2.21 0 4 1.789 4 4v32.239C91.56 435.34 89.77 437.13 87.56 437.13z" fill="black"></path></g><g fill="black"><path d="M110.59 430.52c-2.21 0-4-1.8-4-4v-19c0-2.209 1.79-4 4-4 2.2 0 4 1.791 4 4v19C114.59 428.72 112.79 430.52 110.59 430.52z" fill="black"></path></g></g></g></g></g></svg></g></svg></g></svg></g><defs><mask></mask></defs></svg><rect width="395.52" height="96.78023726612967" fill="black" stroke="none" visibility="hidden"></rect></g></mask></svg><rect width="395.52" height="96.78023726612967" fill="black" stroke="none" visibility="hidden"></rect></g></mask><linearGradient x1="0" x2="1" y1="0.578" y2="0.595" id="479f18fe-b0b6-4fe9-9792-bf80c94f973c"><stop stop-color="#6ee2f5" offset="0"></stop><stop stop-color="#6454f0" offset="1"></stop></linearGradient><rect width="395.52" height="96.78023726612967" fill="url(#479f18fe-b0b6-4fe9-9792-bf80c94f973c)" mask="url(#312d539f-c764-414a-bdda-c12d14a864df)" data-fill-palette-color="accent"></rect></svg><rect width="395.52" height="96.78023726612967" fill="none" stroke="none" visibility="hidden"></rect></g></svg></g></svg>