<svg xmlns="http://www.w3.org/2000/svg" version="1.1" xmlns:xlink="http://www.w3.org/1999/xlink" xmlns:svgjs="http://svgjs.dev/svgjs" width="2000" height="414" viewBox="0 0 2000 414"><g transform="matrix(1,0,0,1,-1.2121212121213603,-0.9839476350035454)"><svg viewBox="0 0 396 82" data-background-color="#ffffff" preserveAspectRatio="xMidYMid meet" height="414" width="2000" xmlns="http://www.w3.org/2000/svg" xmlns:xlink="http://www.w3.org/1999/xlink"><g id="tight-bounds" transform="matrix(1,0,0,1,0.24000000000003752,0.1948881789137431)"><svg viewBox="0 0 395.5199999999999 81.6102236421725" height="81.6102236421725" width="395.5199999999999"><g><svg viewBox="0 0 395.52000000000004 81.61022364217251" height="81.6102236421725" width="395.5199999999999"><g><svg viewBox="0 0 395.52000000000004 81.61022364217251" height="81.61022364217251" width="395.52000000000004"><g id="textblocktransform"><svg viewBox="0 0 395.52000000000004 81.61022364217251" height="81.61022364217251" width="395.52000000000004" id="textblock"><g><svg viewBox="0 0 395.52000000000004 81.61022364217251" height="81.61022364217251" width="395.52000000000004"><g transform="matrix(1,0,0,1,0,0)"><svg width="395.52000000000004" viewBox="4.05 -38 187.78 38.75" height="81.61022364217251" data-palette-color="#1e55b3"><path d="M10.45 0L4.05 0 4.05-34.85 10.45-34.85 10.45 0ZM24.6 0L18.2 0 18.2-24.9 24-24.9 24.12-21.63Q25.1-23.13 26.85-24.31 28.6-25.5 31.45-25.5L31.45-25.5Q35.25-25.5 37.1-23.1 38.95-20.7 38.95-16.45L38.95-16.45 38.95 0 32.55 0 32.55-15.9Q32.55-17.98 31.67-19.26 30.8-20.55 29-20.55L29-20.55Q27.25-20.55 25.92-19.26 24.6-17.98 24.6-15.9L24.6-15.9 24.6 0ZM54.35 0.75L54.35 0.75Q50.12 0.75 48.63-1.45 47.15-3.65 47.15-8.1L47.15-8.1 47.15-19.65 43.9-19.65 43.9-24.9 47.4-24.9 47.75-30.15 53.2-32.5 53.2-24.9 59.35-24.9 59.35-19.65 53.2-19.65 53.2-8.25Q53.2-6.08 53.81-5.24 54.42-4.4 55.5-4.4L55.5-4.4Q56.6-4.4 57.82-4.98 59.05-5.55 59.75-6.15L59.75-6.15 60.95-1.1Q60.17-0.55 58.93-0.14 57.7 0.28 56.43 0.51 55.17 0.75 54.35 0.75ZM75.19 0.65L75.19 0.65Q70.99 0.65 68.42-1.11 65.84-2.88 64.67-5.79 63.49-8.7 63.49-12.15L63.49-12.15Q63.49-15.78 64.83-18.81 66.17-21.85 68.76-23.68 71.34-25.5 75.09-25.5L75.09-25.5Q80.69-25.5 82.92-22.26 85.14-19.03 85.14-13.1L85.14-13.1Q85.14-12.58 85.12-11.78 85.09-10.98 85.04-10.4L85.04-10.4 70.04-10.4Q70.19-7.45 71.71-5.78 73.22-4.1 76.24-4.1L76.24-4.1Q77.79-4.1 79.57-4.79 81.34-5.48 82.19-6.45L82.19-6.45 84.19-1.7Q83.19-1.03 81.03-0.19 78.87 0.65 75.19 0.65ZM69.99-14.3L69.99-14.3 78.79-14.3Q78.79-16.93 78.33-18.31 77.87-19.7 77.07-20.23 76.27-20.75 75.24-20.75L75.24-20.75Q72.69-20.75 71.42-18.86 70.14-16.98 69.99-14.3ZM97.24 0L91.14 0 91.14-38 97.24-38 97.24 0ZM110.94 0L104.84 0 104.84-38 110.94-38 110.94 0ZM125.24-28.95L118.24-28.95 118.24-35.6 125.24-35.6 125.24-28.95ZM124.99 0L118.49 0 118.49-24.9 124.99-24.9 124.99 0ZM139.38 0L132.93 0 132.93-34.85 142.28-34.85Q145.83-34.85 148.73-33.77 151.63-32.7 153.36-30.04 155.08-27.38 155.08-22.65L155.08-22.65Q155.08-19.23 153.78-16.19 152.48-13.15 149.7-11.25 146.91-9.35 142.48-9.35L142.48-9.35 139.38-9.35 139.38 0ZM141.88-29.8L141.88-29.8 139.38-29.8 139.38-14.6 142.03-14.6Q145.33-14.6 146.98-16.57 148.63-18.55 148.63-22.3L148.63-22.3Q148.63-26.13 147.13-27.96 145.63-29.8 141.88-29.8ZM166.98-28.95L159.98-28.95 159.98-35.6 166.98-35.6 166.98-28.95ZM166.73 0L160.23 0 160.23-24.9 166.73-24.9 166.73 0ZM183.98 0.6L183.98 0.6Q180 0.6 177.5-1.19 175-2.98 173.82-5.93 172.63-8.88 172.63-12.35L172.63-12.35Q172.63-15.8 173.95-18.8 175.28-21.8 177.88-23.65 180.48-25.5 184.33-25.5L184.33-25.5Q186.48-25.5 188.23-25.05 189.98-24.6 191.63-23.25L191.63-23.25 189.58-17.95Q188.83-19.07 187.39-19.69 185.95-20.3 184.68-20.3L184.68-20.3Q179.23-20.3 179.23-12.4L179.23-12.4Q179.23-8.25 180.59-6.38 181.95-4.5 184.68-4.5L184.68-4.5Q186.48-4.5 187.85-5.19 189.23-5.88 189.93-6.65L189.93-6.65 191.83-2.2Q191.13-1.45 189.08-0.43 187.03 0.6 183.98 0.6Z" opacity="1" transform="matrix(1,0,0,1,0,0)" fill="#1e55b3" class="wordmark-text-0" data-fill-palette-color="primary" id="text-0"></path></svg></g></svg></g></svg></g></svg></g></svg></g><defs></defs></svg><rect width="395.5199999999999" height="81.6102236421725" fill="none" stroke="none" visibility="hidden"></rect></g></svg></g></svg>